<mxfile host="www.draw.io" modified="2020-01-19T09:18:04.147Z" agent="Mozilla/5.0 (Windows NT 10.0; Win64; x64) AppleWebKit/537.36 (KHTML, like Gecko) Chrome/79.0.3945.117 Safari/537.36" etag="LeW-O3zRVf26FD9R9y9w" version="12.5.5" type="github">
  <diagram id="BXq_DBv9nUaccowQVnsV" name="Page-1">
    <mxGraphModel dx="1422" dy="762" grid="0" gridSize="10" guides="1" tooltips="1" connect="1" arrows="1" fold="1" page="1" pageScale="1" pageWidth="827" pageHeight="1169" math="0" shadow="0">
      <root>
        <mxCell id="0"/>
        <mxCell id="1" parent="0"/>
        <mxCell id="kvMPUhdx5MozveLPKOu3-44" value="" style="rounded=0;whiteSpace=wrap;html=1;" parent="1" vertex="1">
          <mxGeometry x="50" y="1090" width="920" height="455" as="geometry"/>
        </mxCell>
        <mxCell id="9hZH_599BjABb53DfOCj-1" value="" style="ellipse;whiteSpace=wrap;html=1;fillColor=#dae8fc;strokeColor=#6c8ebf;" parent="1" vertex="1">
          <mxGeometry x="110" y="140" width="590" height="400" as="geometry"/>
        </mxCell>
        <mxCell id="9hZH_599BjABb53DfOCj-2" value="" style="rounded=1;whiteSpace=wrap;html=1;fillColor=#fff2cc;strokeColor=#d6b656;" parent="1" vertex="1">
          <mxGeometry x="1928.5" y="125" width="370" height="210" as="geometry"/>
        </mxCell>
        <mxCell id="9hZH_599BjABb53DfOCj-8" value="&lt;font style=&quot;font-size: 16px&quot;&gt;机构1&lt;br&gt;dept_id&lt;/font&gt;" style="rounded=1;whiteSpace=wrap;html=1;" parent="1" vertex="1">
          <mxGeometry x="230" y="230" width="80" height="40" as="geometry"/>
        </mxCell>
        <mxCell id="9hZH_599BjABb53DfOCj-12" style="edgeStyle=orthogonalEdgeStyle;rounded=0;orthogonalLoop=1;jettySize=auto;html=1;exitX=0.5;exitY=0;exitDx=0;exitDy=0;entryX=0.5;entryY=1;entryDx=0;entryDy=0;" parent="1" source="9hZH_599BjABb53DfOCj-9" target="9hZH_599BjABb53DfOCj-8" edge="1">
          <mxGeometry relative="1" as="geometry"/>
        </mxCell>
        <mxCell id="9hZH_599BjABb53DfOCj-9" value="&lt;font style=&quot;font-size: 16px&quot;&gt;用户2&lt;br&gt;use_id&lt;/font&gt;" style="rounded=1;whiteSpace=wrap;html=1;" parent="1" vertex="1">
          <mxGeometry x="150" y="320" width="70" height="40" as="geometry"/>
        </mxCell>
        <mxCell id="9hZH_599BjABb53DfOCj-13" style="edgeStyle=orthogonalEdgeStyle;rounded=0;orthogonalLoop=1;jettySize=auto;html=1;exitX=0.5;exitY=0;exitDx=0;exitDy=0;entryX=0.5;entryY=1;entryDx=0;entryDy=0;" parent="1" source="9hZH_599BjABb53DfOCj-10" target="9hZH_599BjABb53DfOCj-8" edge="1">
          <mxGeometry relative="1" as="geometry">
            <mxPoint x="230" y="270" as="targetPoint"/>
          </mxGeometry>
        </mxCell>
        <mxCell id="9hZH_599BjABb53DfOCj-10" value="&lt;font style=&quot;font-size: 16px&quot;&gt;用户1&lt;br&gt;use_id&lt;/font&gt;" style="rounded=1;whiteSpace=wrap;html=1;" parent="1" vertex="1">
          <mxGeometry x="240" y="320" width="70" height="40" as="geometry"/>
        </mxCell>
        <mxCell id="9hZH_599BjABb53DfOCj-14" style="edgeStyle=orthogonalEdgeStyle;rounded=0;orthogonalLoop=1;jettySize=auto;html=1;exitX=0.5;exitY=0;exitDx=0;exitDy=0;entryX=0.5;entryY=1;entryDx=0;entryDy=0;" parent="1" source="9hZH_599BjABb53DfOCj-11" target="9hZH_599BjABb53DfOCj-8" edge="1">
          <mxGeometry relative="1" as="geometry">
            <mxPoint x="230" y="270" as="targetPoint"/>
          </mxGeometry>
        </mxCell>
        <mxCell id="9hZH_599BjABb53DfOCj-11" value="&lt;font style=&quot;font-size: 16px&quot;&gt;管理员1&lt;br&gt;use_id&lt;/font&gt;" style="rounded=1;whiteSpace=wrap;html=1;" parent="1" vertex="1">
          <mxGeometry x="320" y="320" width="70" height="40" as="geometry"/>
        </mxCell>
        <mxCell id="9hZH_599BjABb53DfOCj-15" value="&lt;font style=&quot;font-size: 16px&quot;&gt;机构2&lt;br&gt;dept_id&lt;/font&gt;" style="rounded=1;whiteSpace=wrap;html=1;" parent="1" vertex="1">
          <mxGeometry x="500" y="240" width="80" height="40" as="geometry"/>
        </mxCell>
        <mxCell id="9hZH_599BjABb53DfOCj-16" style="edgeStyle=orthogonalEdgeStyle;rounded=0;orthogonalLoop=1;jettySize=auto;html=1;exitX=0.5;exitY=0;exitDx=0;exitDy=0;entryX=0.5;entryY=1;entryDx=0;entryDy=0;" parent="1" source="9hZH_599BjABb53DfOCj-17" target="9hZH_599BjABb53DfOCj-15" edge="1">
          <mxGeometry relative="1" as="geometry"/>
        </mxCell>
        <mxCell id="9hZH_599BjABb53DfOCj-17" value="&lt;font style=&quot;font-size: 16px&quot;&gt;用户1&lt;br&gt;use_id&lt;/font&gt;" style="rounded=1;whiteSpace=wrap;html=1;" parent="1" vertex="1">
          <mxGeometry x="430" y="330" width="70" height="40" as="geometry"/>
        </mxCell>
        <mxCell id="9hZH_599BjABb53DfOCj-18" style="edgeStyle=orthogonalEdgeStyle;rounded=0;orthogonalLoop=1;jettySize=auto;html=1;exitX=0.5;exitY=0;exitDx=0;exitDy=0;entryX=0.5;entryY=1;entryDx=0;entryDy=0;" parent="1" source="9hZH_599BjABb53DfOCj-19" target="9hZH_599BjABb53DfOCj-15" edge="1">
          <mxGeometry relative="1" as="geometry">
            <mxPoint x="510" y="280" as="targetPoint"/>
          </mxGeometry>
        </mxCell>
        <mxCell id="9hZH_599BjABb53DfOCj-19" value="&lt;font style=&quot;font-size: 16px&quot;&gt;用户2&lt;br&gt;use_id&lt;/font&gt;" style="rounded=1;whiteSpace=wrap;html=1;" parent="1" vertex="1">
          <mxGeometry x="520" y="330" width="70" height="40" as="geometry"/>
        </mxCell>
        <mxCell id="9hZH_599BjABb53DfOCj-20" style="edgeStyle=orthogonalEdgeStyle;rounded=0;orthogonalLoop=1;jettySize=auto;html=1;exitX=0.5;exitY=0;exitDx=0;exitDy=0;entryX=0.5;entryY=1;entryDx=0;entryDy=0;" parent="1" source="9hZH_599BjABb53DfOCj-21" target="9hZH_599BjABb53DfOCj-15" edge="1">
          <mxGeometry relative="1" as="geometry">
            <mxPoint x="510" y="280" as="targetPoint"/>
          </mxGeometry>
        </mxCell>
        <mxCell id="9hZH_599BjABb53DfOCj-21" value="&lt;font style=&quot;font-size: 16px&quot;&gt;用户2&lt;br&gt;use_id&lt;/font&gt;" style="rounded=1;whiteSpace=wrap;html=1;" parent="1" vertex="1">
          <mxGeometry x="600" y="330" width="70" height="40" as="geometry"/>
        </mxCell>
        <mxCell id="9hZH_599BjABb53DfOCj-22" value="&lt;font style=&quot;font-size: 16px&quot;&gt;海纳云&lt;/font&gt;" style="text;html=1;strokeColor=none;fillColor=none;align=center;verticalAlign=middle;whiteSpace=wrap;rounded=0;" parent="1" vertex="1">
          <mxGeometry x="240" y="420" width="80" height="20" as="geometry"/>
        </mxCell>
        <mxCell id="9hZH_599BjABb53DfOCj-23" value="" style="ellipse;whiteSpace=wrap;html=1;fillColor=#dae8fc;strokeColor=#6c8ebf;" parent="1" vertex="1">
          <mxGeometry x="1560" y="100" width="330" height="240" as="geometry"/>
        </mxCell>
        <mxCell id="9hZH_599BjABb53DfOCj-24" value="业务系统" style="text;html=1;strokeColor=none;fillColor=none;align=center;verticalAlign=middle;whiteSpace=wrap;rounded=0;" parent="1" vertex="1">
          <mxGeometry x="2204.5" y="285" width="70" height="20" as="geometry"/>
        </mxCell>
        <mxCell id="9hZH_599BjABb53DfOCj-25" value="&lt;font style=&quot;font-size: 16px&quot;&gt;利元&lt;br&gt;dept_id&lt;/font&gt;" style="rounded=1;whiteSpace=wrap;html=1;" parent="1" vertex="1">
          <mxGeometry x="1685" y="148" width="80" height="37" as="geometry"/>
        </mxCell>
        <mxCell id="9hZH_599BjABb53DfOCj-28" style="edgeStyle=orthogonalEdgeStyle;rounded=0;orthogonalLoop=1;jettySize=auto;html=1;exitX=0.5;exitY=0;exitDx=0;exitDy=0;entryX=0.5;entryY=1;entryDx=0;entryDy=0;" parent="1" source="9hZH_599BjABb53DfOCj-26" target="9hZH_599BjABb53DfOCj-25" edge="1">
          <mxGeometry relative="1" as="geometry"/>
        </mxCell>
        <mxCell id="9hZH_599BjABb53DfOCj-26" value="&lt;font style=&quot;font-size: 16px&quot;&gt;管理员&lt;/font&gt;" style="rounded=1;whiteSpace=wrap;html=1;" parent="1" vertex="1">
          <mxGeometry x="1692.5" y="245" width="65" height="30" as="geometry"/>
        </mxCell>
        <mxCell id="9hZH_599BjABb53DfOCj-38" style="edgeStyle=orthogonalEdgeStyle;rounded=0;orthogonalLoop=1;jettySize=auto;html=1;exitX=0;exitY=0.5;exitDx=0;exitDy=0;entryX=1;entryY=0.5;entryDx=0;entryDy=0;" parent="1" source="9hZH_599BjABb53DfOCj-29" target="9hZH_599BjABb53DfOCj-25" edge="1">
          <mxGeometry relative="1" as="geometry"/>
        </mxCell>
        <mxCell id="9hZH_599BjABb53DfOCj-29" value="&lt;font style=&quot;font-size: 16px&quot;&gt;机构1&lt;/font&gt;" style="rounded=1;whiteSpace=wrap;html=1;" parent="1" vertex="1">
          <mxGeometry x="2058.5" y="146.5" width="80" height="40" as="geometry"/>
        </mxCell>
        <mxCell id="9hZH_599BjABb53DfOCj-30" style="edgeStyle=orthogonalEdgeStyle;rounded=0;orthogonalLoop=1;jettySize=auto;html=1;exitX=0.5;exitY=0;exitDx=0;exitDy=0;entryX=0.5;entryY=1;entryDx=0;entryDy=0;" parent="1" source="9hZH_599BjABb53DfOCj-31" target="9hZH_599BjABb53DfOCj-29" edge="1">
          <mxGeometry relative="1" as="geometry"/>
        </mxCell>
        <mxCell id="9hZH_599BjABb53DfOCj-31" value="&lt;font style=&quot;font-size: 16px&quot;&gt;用户2&lt;br&gt;use_id&lt;/font&gt;" style="rounded=1;whiteSpace=wrap;html=1;" parent="1" vertex="1">
          <mxGeometry x="2157" y="240" width="70" height="40" as="geometry"/>
        </mxCell>
        <mxCell id="9hZH_599BjABb53DfOCj-32" style="edgeStyle=orthogonalEdgeStyle;rounded=0;orthogonalLoop=1;jettySize=auto;html=1;exitX=0.5;exitY=0;exitDx=0;exitDy=0;entryX=0.5;entryY=1;entryDx=0;entryDy=0;" parent="1" source="9hZH_599BjABb53DfOCj-33" target="9hZH_599BjABb53DfOCj-29" edge="1">
          <mxGeometry relative="1" as="geometry">
            <mxPoint x="2044.5" y="188.5" as="targetPoint"/>
          </mxGeometry>
        </mxCell>
        <mxCell id="9hZH_599BjABb53DfOCj-33" value="&lt;font style=&quot;font-size: 16px&quot;&gt;用户1&lt;br&gt;use_id&lt;/font&gt;" style="rounded=1;whiteSpace=wrap;html=1;" parent="1" vertex="1">
          <mxGeometry x="2064.5" y="240" width="70" height="40" as="geometry"/>
        </mxCell>
        <mxCell id="9hZH_599BjABb53DfOCj-34" style="edgeStyle=orthogonalEdgeStyle;rounded=0;orthogonalLoop=1;jettySize=auto;html=1;exitX=0.5;exitY=0;exitDx=0;exitDy=0;entryX=0.5;entryY=1;entryDx=0;entryDy=0;" parent="1" source="9hZH_599BjABb53DfOCj-35" target="9hZH_599BjABb53DfOCj-29" edge="1">
          <mxGeometry relative="1" as="geometry">
            <mxPoint x="2044.5" y="188.5" as="targetPoint"/>
          </mxGeometry>
        </mxCell>
        <mxCell id="kvMPUhdx5MozveLPKOu3-63" style="edgeStyle=orthogonalEdgeStyle;rounded=0;orthogonalLoop=1;jettySize=auto;html=1;entryX=1;entryY=0.5;entryDx=0;entryDy=0;dashed=1;strokeColor=#000099;" parent="1" source="9hZH_599BjABb53DfOCj-35" target="9hZH_599BjABb53DfOCj-26" edge="1">
          <mxGeometry relative="1" as="geometry"/>
        </mxCell>
        <mxCell id="9hZH_599BjABb53DfOCj-35" value="&lt;font style=&quot;font-size: 16px&quot;&gt;管理员1&lt;br&gt;use_id&lt;/font&gt;" style="rounded=1;whiteSpace=wrap;html=1;" parent="1" vertex="1">
          <mxGeometry x="1970" y="240" width="70" height="40" as="geometry"/>
        </mxCell>
        <mxCell id="9hZH_599BjABb53DfOCj-40" value="&lt;font style=&quot;font-size: 16px&quot;&gt;海纳云&lt;/font&gt;" style="text;html=1;strokeColor=none;fillColor=none;align=center;verticalAlign=middle;whiteSpace=wrap;rounded=0;" parent="1" vertex="1">
          <mxGeometry x="1603" y="220" width="57" height="20" as="geometry"/>
        </mxCell>
        <mxCell id="9hZH_599BjABb53DfOCj-41" value="" style="rounded=1;whiteSpace=wrap;html=1;fillColor=#ffe6cc;strokeColor=#d79b00;" parent="1" vertex="1">
          <mxGeometry x="1919" y="428.2499999999999" width="419" height="267" as="geometry"/>
        </mxCell>
        <mxCell id="9hZH_599BjABb53DfOCj-42" value="" style="ellipse;whiteSpace=wrap;html=1;fillColor=#dae8fc;strokeColor=#6c8ebf;" parent="1" vertex="1">
          <mxGeometry x="1500" y="414.7499999999999" width="387" height="277" as="geometry"/>
        </mxCell>
        <mxCell id="9hZH_599BjABb53DfOCj-43" value="&lt;font style=&quot;font-size: 13px&quot;&gt;现场质控系统&lt;/font&gt;" style="text;html=1;strokeColor=none;fillColor=none;align=center;verticalAlign=middle;whiteSpace=wrap;rounded=0;" parent="1" vertex="1">
          <mxGeometry x="2199" y="655.2499999999999" width="89" height="14" as="geometry"/>
        </mxCell>
        <mxCell id="9hZH_599BjABb53DfOCj-60" style="edgeStyle=orthogonalEdgeStyle;rounded=0;orthogonalLoop=1;jettySize=auto;html=1;exitX=0.5;exitY=0;exitDx=0;exitDy=0;entryX=0.5;entryY=1;entryDx=0;entryDy=0;" parent="1" source="9hZH_599BjABb53DfOCj-44" target="9hZH_599BjABb53DfOCj-57" edge="1">
          <mxGeometry relative="1" as="geometry"/>
        </mxCell>
        <mxCell id="9hZH_599BjABb53DfOCj-44" value="&lt;font style=&quot;font-size: 16px&quot;&gt;机构1&lt;br&gt;dept_id&lt;/font&gt;" style="rounded=1;whiteSpace=wrap;html=1;" parent="1" vertex="1">
          <mxGeometry x="1642" y="532.2499999999999" width="80" height="37" as="geometry"/>
        </mxCell>
        <mxCell id="9hZH_599BjABb53DfOCj-45" style="edgeStyle=orthogonalEdgeStyle;rounded=0;orthogonalLoop=1;jettySize=auto;html=1;exitX=0.5;exitY=0;exitDx=0;exitDy=0;entryX=0.5;entryY=1;entryDx=0;entryDy=0;" parent="1" source="9hZH_599BjABb53DfOCj-46" target="9hZH_599BjABb53DfOCj-44" edge="1">
          <mxGeometry relative="1" as="geometry"/>
        </mxCell>
        <mxCell id="9hZH_599BjABb53DfOCj-46" value="&lt;font style=&quot;font-size: 16px&quot;&gt;管理员&lt;/font&gt;" style="rounded=1;whiteSpace=wrap;html=1;" parent="1" vertex="1">
          <mxGeometry x="1646.75" y="617.37" width="70.5" height="31.75" as="geometry"/>
        </mxCell>
        <mxCell id="9hZH_599BjABb53DfOCj-47" style="edgeStyle=orthogonalEdgeStyle;rounded=0;orthogonalLoop=1;jettySize=auto;html=1;exitX=0;exitY=0.5;exitDx=0;exitDy=0;entryX=1;entryY=0.5;entryDx=0;entryDy=0;" parent="1" source="9hZH_599BjABb53DfOCj-48" target="9hZH_599BjABb53DfOCj-44" edge="1">
          <mxGeometry relative="1" as="geometry"/>
        </mxCell>
        <mxCell id="9hZH_599BjABb53DfOCj-59" style="edgeStyle=orthogonalEdgeStyle;rounded=0;orthogonalLoop=1;jettySize=auto;html=1;exitX=0.5;exitY=0;exitDx=0;exitDy=0;entryX=0.5;entryY=1;entryDx=0;entryDy=0;" parent="1" source="9hZH_599BjABb53DfOCj-48" target="9hZH_599BjABb53DfOCj-56" edge="1">
          <mxGeometry relative="1" as="geometry"/>
        </mxCell>
        <mxCell id="9hZH_599BjABb53DfOCj-48" value="&lt;font style=&quot;font-size: 16px&quot;&gt;机构1&lt;/font&gt;" style="rounded=1;whiteSpace=wrap;html=1;" parent="1" vertex="1">
          <mxGeometry x="2042" y="531.2499999999999" width="80" height="40" as="geometry"/>
        </mxCell>
        <mxCell id="9hZH_599BjABb53DfOCj-49" style="edgeStyle=orthogonalEdgeStyle;rounded=0;orthogonalLoop=1;jettySize=auto;html=1;exitX=0.5;exitY=0;exitDx=0;exitDy=0;entryX=0.5;entryY=1;entryDx=0;entryDy=0;" parent="1" source="9hZH_599BjABb53DfOCj-50" target="9hZH_599BjABb53DfOCj-48" edge="1">
          <mxGeometry relative="1" as="geometry"/>
        </mxCell>
        <mxCell id="9hZH_599BjABb53DfOCj-50" value="&lt;font style=&quot;font-size: 16px&quot;&gt;用户2&lt;br&gt;use_id&lt;/font&gt;" style="rounded=1;whiteSpace=wrap;html=1;" parent="1" vertex="1">
          <mxGeometry x="2134.5" y="613.2499999999999" width="70" height="40" as="geometry"/>
        </mxCell>
        <mxCell id="9hZH_599BjABb53DfOCj-51" style="edgeStyle=orthogonalEdgeStyle;rounded=0;orthogonalLoop=1;jettySize=auto;html=1;exitX=0.5;exitY=0;exitDx=0;exitDy=0;entryX=0.5;entryY=1;entryDx=0;entryDy=0;" parent="1" source="9hZH_599BjABb53DfOCj-52" target="9hZH_599BjABb53DfOCj-48" edge="1">
          <mxGeometry relative="1" as="geometry">
            <mxPoint x="2038.5" y="558.2499999999999" as="targetPoint"/>
          </mxGeometry>
        </mxCell>
        <mxCell id="9hZH_599BjABb53DfOCj-52" value="&lt;font style=&quot;font-size: 16px&quot;&gt;用户1&lt;br&gt;use_id&lt;/font&gt;" style="rounded=1;whiteSpace=wrap;html=1;" parent="1" vertex="1">
          <mxGeometry x="2048.5" y="610.2499999999999" width="70" height="40" as="geometry"/>
        </mxCell>
        <mxCell id="9hZH_599BjABb53DfOCj-53" style="edgeStyle=orthogonalEdgeStyle;rounded=0;orthogonalLoop=1;jettySize=auto;html=1;exitX=0.5;exitY=0;exitDx=0;exitDy=0;entryX=0.5;entryY=1;entryDx=0;entryDy=0;" parent="1" source="9hZH_599BjABb53DfOCj-54" target="9hZH_599BjABb53DfOCj-48" edge="1">
          <mxGeometry relative="1" as="geometry">
            <mxPoint x="2038.5" y="558.2499999999999" as="targetPoint"/>
          </mxGeometry>
        </mxCell>
        <mxCell id="9hZH_599BjABb53DfOCj-54" value="&lt;font style=&quot;font-size: 16px&quot;&gt;管理员1&lt;br&gt;use_id&lt;/font&gt;" style="rounded=1;whiteSpace=wrap;html=1;" parent="1" vertex="1">
          <mxGeometry x="1960" y="613.2499999999999" width="70" height="40" as="geometry"/>
        </mxCell>
        <mxCell id="9hZH_599BjABb53DfOCj-55" value="&lt;font style=&quot;font-size: 16px&quot;&gt;海纳云&lt;/font&gt;" style="text;html=1;strokeColor=none;fillColor=none;align=center;verticalAlign=middle;whiteSpace=wrap;rounded=0;" parent="1" vertex="1">
          <mxGeometry x="1542" y="553.25" width="58" height="20" as="geometry"/>
        </mxCell>
        <mxCell id="9hZH_599BjABb53DfOCj-58" style="edgeStyle=orthogonalEdgeStyle;rounded=0;orthogonalLoop=1;jettySize=auto;html=1;exitX=0;exitY=0.5;exitDx=0;exitDy=0;entryX=1;entryY=0.5;entryDx=0;entryDy=0;" parent="1" source="9hZH_599BjABb53DfOCj-56" target="9hZH_599BjABb53DfOCj-57" edge="1">
          <mxGeometry relative="1" as="geometry"/>
        </mxCell>
        <mxCell id="9hZH_599BjABb53DfOCj-56" value="&lt;font style=&quot;font-size: 16px&quot;&gt;政府&lt;/font&gt;" style="rounded=1;whiteSpace=wrap;html=1;" parent="1" vertex="1">
          <mxGeometry x="2149" y="448.2499999999999" width="78" height="40" as="geometry"/>
        </mxCell>
        <mxCell id="9hZH_599BjABb53DfOCj-57" value="&lt;font style=&quot;font-size: 16px&quot;&gt;青岛环保局&lt;/font&gt;" style="rounded=1;whiteSpace=wrap;html=1;" parent="1" vertex="1">
          <mxGeometry x="1630" y="441.63" width="98" height="53.25" as="geometry"/>
        </mxCell>
        <mxCell id="9hZH_599BjABb53DfOCj-62" style="edgeStyle=orthogonalEdgeStyle;rounded=0;orthogonalLoop=1;jettySize=auto;html=1;exitX=0.5;exitY=0;exitDx=0;exitDy=0;entryX=0.5;entryY=1;entryDx=0;entryDy=0;" parent="1" source="9hZH_599BjABb53DfOCj-61" target="9hZH_599BjABb53DfOCj-56" edge="1">
          <mxGeometry relative="1" as="geometry"/>
        </mxCell>
        <mxCell id="9hZH_599BjABb53DfOCj-61" value="&lt;font style=&quot;font-size: 16px&quot;&gt;机构2&lt;/font&gt;" style="rounded=1;whiteSpace=wrap;html=1;" parent="1" vertex="1">
          <mxGeometry x="2227" y="531.2499999999999" width="80" height="40" as="geometry"/>
        </mxCell>
        <mxCell id="9hZH_599BjABb53DfOCj-67" style="edgeStyle=orthogonalEdgeStyle;rounded=0;orthogonalLoop=1;jettySize=auto;html=1;exitX=0.5;exitY=0;exitDx=0;exitDy=0;entryX=0.5;entryY=1;entryDx=0;entryDy=0;" parent="1" source="9hZH_599BjABb53DfOCj-63" target="9hZH_599BjABb53DfOCj-17" edge="1">
          <mxGeometry relative="1" as="geometry"/>
        </mxCell>
        <mxCell id="9hZH_599BjABb53DfOCj-63" value="&lt;font style=&quot;font-size: 16px&quot;&gt;注册验证服务&lt;br&gt;（手机号短信验证)&lt;/font&gt;" style="rounded=1;whiteSpace=wrap;html=1;fillColor=#fff2cc;strokeColor=#d6b656;" parent="1" vertex="1">
          <mxGeometry x="340" y="450" width="138" height="60" as="geometry"/>
        </mxCell>
        <mxCell id="9hZH_599BjABb53DfOCj-66" style="edgeStyle=orthogonalEdgeStyle;rounded=0;orthogonalLoop=1;jettySize=auto;html=1;exitX=0.5;exitY=0.5;exitDx=0;exitDy=0;exitPerimeter=0;" parent="1" source="9hZH_599BjABb53DfOCj-65" target="9hZH_599BjABb53DfOCj-63" edge="1">
          <mxGeometry relative="1" as="geometry"/>
        </mxCell>
        <mxCell id="9hZH_599BjABb53DfOCj-65" value="Actor" style="shape=umlActor;verticalLabelPosition=bottom;labelBackgroundColor=#ffffff;verticalAlign=top;html=1;outlineConnect=0;" parent="1" vertex="1">
          <mxGeometry x="729.5" y="450" width="30" height="60" as="geometry"/>
        </mxCell>
        <mxCell id="9hZH_599BjABb53DfOCj-68" value="" style="ellipse;whiteSpace=wrap;html=1;fillColor=#dae8fc;strokeColor=#6c8ebf;" parent="1" vertex="1">
          <mxGeometry x="99" y="620" width="590" height="400" as="geometry"/>
        </mxCell>
        <mxCell id="9hZH_599BjABb53DfOCj-83" value="海纳云" style="text;html=1;strokeColor=none;fillColor=none;align=center;verticalAlign=middle;whiteSpace=wrap;rounded=0;" parent="1" vertex="1">
          <mxGeometry x="269" y="900" width="40" height="20" as="geometry"/>
        </mxCell>
        <mxCell id="9hZH_599BjABb53DfOCj-95" style="edgeStyle=orthogonalEdgeStyle;rounded=0;orthogonalLoop=1;jettySize=auto;html=1;entryX=1;entryY=0.75;entryDx=0;entryDy=0;exitX=0;exitY=0.75;exitDx=0;exitDy=0;" parent="1" source="9hZH_599BjABb53DfOCj-85" target="9hZH_599BjABb53DfOCj-88" edge="1">
          <mxGeometry relative="1" as="geometry"/>
        </mxCell>
        <mxCell id="9hZH_599BjABb53DfOCj-85" value="微信中间三方验证服务" style="rounded=1;whiteSpace=wrap;html=1;fillColor=#d5e8d4;strokeColor=#82b366;" parent="1" vertex="1">
          <mxGeometry x="684.5" y="910" width="120" height="60" as="geometry"/>
        </mxCell>
        <mxCell id="9hZH_599BjABb53DfOCj-86" style="edgeStyle=orthogonalEdgeStyle;rounded=0;orthogonalLoop=1;jettySize=auto;html=1;exitX=0.5;exitY=0.5;exitDx=0;exitDy=0;exitPerimeter=0;" parent="1" source="9hZH_599BjABb53DfOCj-87" target="9hZH_599BjABb53DfOCj-85" edge="1">
          <mxGeometry relative="1" as="geometry"/>
        </mxCell>
        <mxCell id="9hZH_599BjABb53DfOCj-87" value="Actor" style="shape=umlActor;verticalLabelPosition=bottom;labelBackgroundColor=#ffffff;verticalAlign=top;html=1;outlineConnect=0;" parent="1" vertex="1">
          <mxGeometry x="899.5" y="910" width="30" height="60" as="geometry"/>
        </mxCell>
        <mxCell id="9hZH_599BjABb53DfOCj-91" style="edgeStyle=orthogonalEdgeStyle;rounded=0;orthogonalLoop=1;jettySize=auto;html=1;exitX=0.75;exitY=0;exitDx=0;exitDy=0;entryX=0.5;entryY=1;entryDx=0;entryDy=0;" parent="1" source="9hZH_599BjABb53DfOCj-88" target="kvMPUhdx5MozveLPKOu3-76" edge="1">
          <mxGeometry relative="1" as="geometry">
            <mxPoint x="454.7142857142858" y="849.5714285714287" as="targetPoint"/>
          </mxGeometry>
        </mxCell>
        <mxCell id="9hZH_599BjABb53DfOCj-94" style="edgeStyle=orthogonalEdgeStyle;rounded=0;orthogonalLoop=1;jettySize=auto;html=1;exitX=1;exitY=0.25;exitDx=0;exitDy=0;entryX=0;entryY=0.25;entryDx=0;entryDy=0;" parent="1" source="9hZH_599BjABb53DfOCj-88" target="9hZH_599BjABb53DfOCj-85" edge="1">
          <mxGeometry relative="1" as="geometry"/>
        </mxCell>
        <mxCell id="9hZH_599BjABb53DfOCj-88" value="注册验证服务" style="rounded=1;whiteSpace=wrap;html=1;fillColor=#fff2cc;strokeColor=#d6b656;" parent="1" vertex="1">
          <mxGeometry x="343" y="910" width="120" height="60" as="geometry"/>
        </mxCell>
        <mxCell id="zYP_ZSxPphD_Wm0hPU5A-1" value="" style="rounded=1;whiteSpace=wrap;html=1;fillColor=#ffe6cc;strokeColor=#d79b00;" parent="1" vertex="1">
          <mxGeometry x="1949" y="778.25" width="461" height="281.75" as="geometry"/>
        </mxCell>
        <mxCell id="zYP_ZSxPphD_Wm0hPU5A-2" value="" style="ellipse;whiteSpace=wrap;html=1;fillColor=#dae8fc;strokeColor=#6c8ebf;" parent="1" vertex="1">
          <mxGeometry x="1530" y="764.7499999999999" width="387" height="277" as="geometry"/>
        </mxCell>
        <mxCell id="zYP_ZSxPphD_Wm0hPU5A-3" value="&lt;span style=&quot;font-size: 13px&quot;&gt;鹰联仪用户&lt;/span&gt;" style="text;html=1;strokeColor=none;fillColor=none;align=center;verticalAlign=middle;whiteSpace=wrap;rounded=0;" parent="1" vertex="1">
          <mxGeometry x="2274.5" y="1002.25" width="89" height="14" as="geometry"/>
        </mxCell>
        <mxCell id="zYP_ZSxPphD_Wm0hPU5A-4" style="edgeStyle=orthogonalEdgeStyle;rounded=0;orthogonalLoop=1;jettySize=auto;html=1;exitX=0.5;exitY=0;exitDx=0;exitDy=0;entryX=0.5;entryY=1;entryDx=0;entryDy=0;" parent="1" source="zYP_ZSxPphD_Wm0hPU5A-5" target="zYP_ZSxPphD_Wm0hPU5A-20" edge="1">
          <mxGeometry relative="1" as="geometry"/>
        </mxCell>
        <mxCell id="zYP_ZSxPphD_Wm0hPU5A-5" value="&lt;font style=&quot;font-size: 16px&quot;&gt;机构1&lt;br&gt;dept_id&lt;/font&gt;" style="rounded=1;whiteSpace=wrap;html=1;" parent="1" vertex="1">
          <mxGeometry x="1672" y="883.25" width="108" height="36.75" as="geometry"/>
        </mxCell>
        <mxCell id="zYP_ZSxPphD_Wm0hPU5A-6" style="edgeStyle=orthogonalEdgeStyle;rounded=0;orthogonalLoop=1;jettySize=auto;html=1;exitX=0.5;exitY=0;exitDx=0;exitDy=0;entryX=0.5;entryY=1;entryDx=0;entryDy=0;" parent="1" source="zYP_ZSxPphD_Wm0hPU5A-7" target="zYP_ZSxPphD_Wm0hPU5A-5" edge="1">
          <mxGeometry relative="1" as="geometry"/>
        </mxCell>
        <mxCell id="zYP_ZSxPphD_Wm0hPU5A-7" value="&lt;font style=&quot;font-size: 16px&quot;&gt;管理员&lt;/font&gt;" style="rounded=1;whiteSpace=wrap;html=1;" parent="1" vertex="1">
          <mxGeometry x="1679.5" y="968.25" width="90.5" height="41.75" as="geometry"/>
        </mxCell>
        <mxCell id="zYP_ZSxPphD_Wm0hPU5A-8" style="edgeStyle=orthogonalEdgeStyle;rounded=0;orthogonalLoop=1;jettySize=auto;html=1;exitX=0;exitY=0.5;exitDx=0;exitDy=0;entryX=1;entryY=0.5;entryDx=0;entryDy=0;" parent="1" source="zYP_ZSxPphD_Wm0hPU5A-10" target="zYP_ZSxPphD_Wm0hPU5A-5" edge="1">
          <mxGeometry relative="1" as="geometry"/>
        </mxCell>
        <mxCell id="zYP_ZSxPphD_Wm0hPU5A-9" style="edgeStyle=orthogonalEdgeStyle;rounded=0;orthogonalLoop=1;jettySize=auto;html=1;exitX=0.5;exitY=0;exitDx=0;exitDy=0;entryX=0.5;entryY=1;entryDx=0;entryDy=0;" parent="1" source="zYP_ZSxPphD_Wm0hPU5A-10" target="zYP_ZSxPphD_Wm0hPU5A-19" edge="1">
          <mxGeometry relative="1" as="geometry"/>
        </mxCell>
        <mxCell id="zYP_ZSxPphD_Wm0hPU5A-10" value="&lt;font style=&quot;font-size: 16px&quot;&gt;买方1&lt;/font&gt;" style="rounded=1;whiteSpace=wrap;html=1;" parent="1" vertex="1">
          <mxGeometry x="2072" y="881.2499999999999" width="80" height="40" as="geometry"/>
        </mxCell>
        <mxCell id="zYP_ZSxPphD_Wm0hPU5A-11" style="edgeStyle=orthogonalEdgeStyle;rounded=0;orthogonalLoop=1;jettySize=auto;html=1;exitX=0.5;exitY=0;exitDx=0;exitDy=0;entryX=0.5;entryY=1;entryDx=0;entryDy=0;" parent="1" source="zYP_ZSxPphD_Wm0hPU5A-12" target="zYP_ZSxPphD_Wm0hPU5A-10" edge="1">
          <mxGeometry relative="1" as="geometry"/>
        </mxCell>
        <mxCell id="kvMPUhdx5MozveLPKOu3-62" style="edgeStyle=orthogonalEdgeStyle;rounded=0;orthogonalLoop=1;jettySize=auto;html=1;dashed=1;strokeColor=#000099;" parent="1" source="zYP_ZSxPphD_Wm0hPU5A-12" target="zYP_ZSxPphD_Wm0hPU5A-7" edge="1">
          <mxGeometry relative="1" as="geometry"/>
        </mxCell>
        <mxCell id="zYP_ZSxPphD_Wm0hPU5A-12" value="&lt;font style=&quot;font-size: 16px&quot;&gt;管理员1&lt;br&gt;use_id&lt;/font&gt;" style="rounded=1;whiteSpace=wrap;html=1;" parent="1" vertex="1">
          <mxGeometry x="1988.5" y="962.2499999999999" width="70" height="40" as="geometry"/>
        </mxCell>
        <mxCell id="zYP_ZSxPphD_Wm0hPU5A-13" style="edgeStyle=orthogonalEdgeStyle;rounded=0;orthogonalLoop=1;jettySize=auto;html=1;exitX=0.5;exitY=0;exitDx=0;exitDy=0;entryX=0.5;entryY=1;entryDx=0;entryDy=0;" parent="1" source="zYP_ZSxPphD_Wm0hPU5A-14" target="zYP_ZSxPphD_Wm0hPU5A-10" edge="1">
          <mxGeometry relative="1" as="geometry">
            <mxPoint x="2068.5" y="908.2499999999999" as="targetPoint"/>
          </mxGeometry>
        </mxCell>
        <mxCell id="zYP_ZSxPphD_Wm0hPU5A-14" value="&lt;font style=&quot;font-size: 16px&quot;&gt;用户1&lt;br&gt;use_id&lt;/font&gt;" style="rounded=1;whiteSpace=wrap;html=1;" parent="1" vertex="1">
          <mxGeometry x="2078.5" y="960.2499999999999" width="70" height="40" as="geometry"/>
        </mxCell>
        <mxCell id="zYP_ZSxPphD_Wm0hPU5A-15" style="edgeStyle=orthogonalEdgeStyle;rounded=0;orthogonalLoop=1;jettySize=auto;html=1;exitX=0.5;exitY=0;exitDx=0;exitDy=0;entryX=0.5;entryY=1;entryDx=0;entryDy=0;" parent="1" source="zYP_ZSxPphD_Wm0hPU5A-16" target="zYP_ZSxPphD_Wm0hPU5A-10" edge="1">
          <mxGeometry relative="1" as="geometry">
            <mxPoint x="2068.5" y="908.2499999999999" as="targetPoint"/>
          </mxGeometry>
        </mxCell>
        <mxCell id="zYP_ZSxPphD_Wm0hPU5A-16" value="&lt;font style=&quot;font-size: 16px&quot;&gt;用户2&lt;br&gt;use_id&lt;/font&gt;" style="rounded=1;whiteSpace=wrap;html=1;" parent="1" vertex="1">
          <mxGeometry x="2158.5" y="961.2499999999999" width="70" height="40" as="geometry"/>
        </mxCell>
        <mxCell id="zYP_ZSxPphD_Wm0hPU5A-17" value="&lt;font style=&quot;font-size: 16px&quot;&gt;海纳云&lt;/font&gt;" style="text;html=1;strokeColor=none;fillColor=none;align=center;verticalAlign=middle;whiteSpace=wrap;rounded=0;" parent="1" vertex="1">
          <mxGeometry x="1572" y="903.25" width="58" height="20" as="geometry"/>
        </mxCell>
        <mxCell id="zYP_ZSxPphD_Wm0hPU5A-18" style="edgeStyle=orthogonalEdgeStyle;rounded=0;orthogonalLoop=1;jettySize=auto;html=1;exitX=0;exitY=0.5;exitDx=0;exitDy=0;entryX=1;entryY=0.5;entryDx=0;entryDy=0;" parent="1" source="zYP_ZSxPphD_Wm0hPU5A-19" target="zYP_ZSxPphD_Wm0hPU5A-20" edge="1">
          <mxGeometry relative="1" as="geometry"/>
        </mxCell>
        <mxCell id="zYP_ZSxPphD_Wm0hPU5A-19" value="&lt;font style=&quot;font-size: 16px&quot;&gt;崂应&lt;/font&gt;" style="rounded=1;whiteSpace=wrap;html=1;" parent="1" vertex="1">
          <mxGeometry x="2179" y="798.2499999999999" width="78" height="40" as="geometry"/>
        </mxCell>
        <mxCell id="zYP_ZSxPphD_Wm0hPU5A-20" value="&lt;font style=&quot;font-size: 16px&quot;&gt;崂应&lt;/font&gt;&lt;span style=&quot;font-size: 16px&quot;&gt;/北京总站&lt;/span&gt;" style="rounded=1;whiteSpace=wrap;html=1;" parent="1" vertex="1">
          <mxGeometry x="1672" y="796.75" width="108" height="63.25" as="geometry"/>
        </mxCell>
        <mxCell id="zYP_ZSxPphD_Wm0hPU5A-21" style="edgeStyle=orthogonalEdgeStyle;rounded=0;orthogonalLoop=1;jettySize=auto;html=1;exitX=0.5;exitY=0;exitDx=0;exitDy=0;entryX=0.5;entryY=1;entryDx=0;entryDy=0;" parent="1" source="zYP_ZSxPphD_Wm0hPU5A-22" target="zYP_ZSxPphD_Wm0hPU5A-19" edge="1">
          <mxGeometry relative="1" as="geometry"/>
        </mxCell>
        <mxCell id="zYP_ZSxPphD_Wm0hPU5A-22" value="&lt;font style=&quot;font-size: 16px&quot;&gt;买方2&lt;/font&gt;" style="rounded=1;whiteSpace=wrap;html=1;" parent="1" vertex="1">
          <mxGeometry x="2178" y="882.2499999999999" width="80" height="40" as="geometry"/>
        </mxCell>
        <mxCell id="kvMPUhdx5MozveLPKOu3-1" value="&lt;font style=&quot;font-size: 16px&quot;&gt;系统管理员&lt;br&gt;super_admin&lt;/font&gt;" style="rounded=1;whiteSpace=wrap;html=1;" parent="1" vertex="1">
          <mxGeometry x="1020" y="340" width="120" height="60" as="geometry"/>
        </mxCell>
        <mxCell id="kvMPUhdx5MozveLPKOu3-2" value="&lt;font style=&quot;font-size: 16px&quot;&gt;系统监察员&lt;br&gt;super_visor&lt;/font&gt;" style="rounded=1;whiteSpace=wrap;html=1;" parent="1" vertex="1">
          <mxGeometry x="840" y="250" width="120" height="60" as="geometry"/>
        </mxCell>
        <mxCell id="kvMPUhdx5MozveLPKOu3-6" style="edgeStyle=orthogonalEdgeStyle;rounded=0;orthogonalLoop=1;jettySize=auto;html=1;" parent="1" source="kvMPUhdx5MozveLPKOu3-3" target="kvMPUhdx5MozveLPKOu3-1" edge="1">
          <mxGeometry relative="1" as="geometry"/>
        </mxCell>
        <mxCell id="kvMPUhdx5MozveLPKOu3-3" value="&lt;font style=&quot;font-size: 16px&quot;&gt;监察员&lt;br&gt;admin&lt;/font&gt;" style="rounded=1;whiteSpace=wrap;html=1;" parent="1" vertex="1">
          <mxGeometry x="1023" y="460" width="114" height="65" as="geometry"/>
        </mxCell>
        <mxCell id="kvMPUhdx5MozveLPKOu3-5" style="edgeStyle=orthogonalEdgeStyle;rounded=0;orthogonalLoop=1;jettySize=auto;html=1;entryX=0.5;entryY=1;entryDx=0;entryDy=0;" parent="1" source="kvMPUhdx5MozveLPKOu3-4" target="kvMPUhdx5MozveLPKOu3-2" edge="1">
          <mxGeometry relative="1" as="geometry"/>
        </mxCell>
        <mxCell id="kvMPUhdx5MozveLPKOu3-4" value="&lt;font style=&quot;font-size: 16px&quot;&gt;视察员&lt;br&gt;inspector&lt;/font&gt;" style="rounded=1;whiteSpace=wrap;html=1;" parent="1" vertex="1">
          <mxGeometry x="840" y="370" width="120" height="60" as="geometry"/>
        </mxCell>
        <mxCell id="kvMPUhdx5MozveLPKOu3-8" style="edgeStyle=orthogonalEdgeStyle;rounded=0;orthogonalLoop=1;jettySize=auto;html=1;entryX=0.5;entryY=1;entryDx=0;entryDy=0;" parent="1" source="kvMPUhdx5MozveLPKOu3-7" target="kvMPUhdx5MozveLPKOu3-3" edge="1">
          <mxGeometry relative="1" as="geometry"/>
        </mxCell>
        <mxCell id="kvMPUhdx5MozveLPKOu3-24" style="edgeStyle=orthogonalEdgeStyle;rounded=0;orthogonalLoop=1;jettySize=auto;html=1;dashed=1;strokeColor=#0000CC;exitX=1;exitY=0.5;exitDx=0;exitDy=0;" parent="1" source="kvMPUhdx5MozveLPKOu3-7" edge="1">
          <mxGeometry relative="1" as="geometry">
            <mxPoint x="1670" y="990" as="targetPoint"/>
            <Array as="points">
              <mxPoint x="1400" y="650"/>
              <mxPoint x="1400" y="984"/>
            </Array>
          </mxGeometry>
        </mxCell>
        <mxCell id="kvMPUhdx5MozveLPKOu3-25" style="edgeStyle=orthogonalEdgeStyle;rounded=0;orthogonalLoop=1;jettySize=auto;html=1;entryX=0;entryY=0.5;entryDx=0;entryDy=0;dashed=1;strokeColor=#000099;exitX=1;exitY=0.5;exitDx=0;exitDy=0;" parent="1" source="kvMPUhdx5MozveLPKOu3-7" target="9hZH_599BjABb53DfOCj-26" edge="1">
          <mxGeometry relative="1" as="geometry">
            <Array as="points">
              <mxPoint x="1400" y="650"/>
              <mxPoint x="1400" y="260"/>
            </Array>
          </mxGeometry>
        </mxCell>
        <mxCell id="kvMPUhdx5MozveLPKOu3-7" value="&lt;font style=&quot;font-size: 16px&quot;&gt;机构管理员&lt;br&gt;admin_dept&lt;/font&gt;" style="rounded=1;whiteSpace=wrap;html=1;fillColor=#dae8fc;strokeColor=#6c8ebf;" parent="1" vertex="1">
          <mxGeometry x="1020" y="620" width="120" height="60" as="geometry"/>
        </mxCell>
        <mxCell id="kvMPUhdx5MozveLPKOu3-10" style="edgeStyle=orthogonalEdgeStyle;rounded=0;orthogonalLoop=1;jettySize=auto;html=1;entryX=0.5;entryY=1;entryDx=0;entryDy=0;" parent="1" source="kvMPUhdx5MozveLPKOu3-9" target="kvMPUhdx5MozveLPKOu3-1" edge="1">
          <mxGeometry relative="1" as="geometry">
            <Array as="points">
              <mxPoint x="1231" y="440"/>
              <mxPoint x="1081" y="440"/>
            </Array>
          </mxGeometry>
        </mxCell>
        <mxCell id="kvMPUhdx5MozveLPKOu3-21" style="edgeStyle=orthogonalEdgeStyle;rounded=0;orthogonalLoop=1;jettySize=auto;html=1;entryX=0;entryY=0.5;entryDx=0;entryDy=0;dashed=1;strokeColor=#CC0000;" parent="1" source="kvMPUhdx5MozveLPKOu3-9" target="9hZH_599BjABb53DfOCj-57" edge="1">
          <mxGeometry relative="1" as="geometry">
            <Array as="points">
              <mxPoint x="1471" y="491"/>
              <mxPoint x="1471" y="469"/>
            </Array>
          </mxGeometry>
        </mxCell>
        <mxCell id="kvMPUhdx5MozveLPKOu3-22" style="edgeStyle=orthogonalEdgeStyle;rounded=0;orthogonalLoop=1;jettySize=auto;html=1;entryX=0;entryY=0.5;entryDx=0;entryDy=0;dashed=1;strokeColor=#CC0000;" parent="1" source="kvMPUhdx5MozveLPKOu3-9" target="zYP_ZSxPphD_Wm0hPU5A-20" edge="1">
          <mxGeometry relative="1" as="geometry">
            <Array as="points">
              <mxPoint x="1470" y="491"/>
              <mxPoint x="1470" y="818"/>
            </Array>
          </mxGeometry>
        </mxCell>
        <mxCell id="kvMPUhdx5MozveLPKOu3-9" value="&lt;font style=&quot;font-size: 16px&quot;&gt;多机构管理员&lt;br&gt;admin_union&lt;/font&gt;" style="rounded=1;whiteSpace=wrap;html=1;fillColor=#f8cecc;strokeColor=#b85450;" parent="1" vertex="1">
          <mxGeometry x="1170" y="461.25" width="120" height="60" as="geometry"/>
        </mxCell>
        <mxCell id="kvMPUhdx5MozveLPKOu3-12" style="edgeStyle=orthogonalEdgeStyle;rounded=0;orthogonalLoop=1;jettySize=auto;html=1;" parent="1" source="kvMPUhdx5MozveLPKOu3-11" target="kvMPUhdx5MozveLPKOu3-4" edge="1">
          <mxGeometry relative="1" as="geometry"/>
        </mxCell>
        <mxCell id="kvMPUhdx5MozveLPKOu3-11" value="&lt;font style=&quot;font-size: 16px&quot;&gt;单位视察员&lt;br&gt;inspector_dept&lt;/font&gt;" style="rounded=1;whiteSpace=wrap;html=1;" parent="1" vertex="1">
          <mxGeometry x="840" y="490" width="120" height="60" as="geometry"/>
        </mxCell>
        <mxCell id="kvMPUhdx5MozveLPKOu3-14" style="edgeStyle=orthogonalEdgeStyle;rounded=0;orthogonalLoop=1;jettySize=auto;html=1;entryX=0.5;entryY=1;entryDx=0;entryDy=0;" parent="1" source="kvMPUhdx5MozveLPKOu3-13" target="kvMPUhdx5MozveLPKOu3-11" edge="1">
          <mxGeometry relative="1" as="geometry"/>
        </mxCell>
        <mxCell id="kvMPUhdx5MozveLPKOu3-27" style="edgeStyle=orthogonalEdgeStyle;rounded=0;orthogonalLoop=1;jettySize=auto;html=1;dashed=1;strokeColor=#336600;" parent="1" source="kvMPUhdx5MozveLPKOu3-13" edge="1">
          <mxGeometry relative="1" as="geometry">
            <mxPoint x="750" y="510" as="targetPoint"/>
          </mxGeometry>
        </mxCell>
        <mxCell id="kvMPUhdx5MozveLPKOu3-28" style="edgeStyle=orthogonalEdgeStyle;rounded=0;orthogonalLoop=1;jettySize=auto;html=1;entryX=0.5;entryY=0.5;entryDx=0;entryDy=0;entryPerimeter=0;dashed=1;strokeColor=#336600;" parent="1" source="kvMPUhdx5MozveLPKOu3-13" target="9hZH_599BjABb53DfOCj-87" edge="1">
          <mxGeometry relative="1" as="geometry">
            <Array as="points">
              <mxPoint x="751" y="630"/>
              <mxPoint x="751" y="850"/>
              <mxPoint x="915" y="850"/>
            </Array>
          </mxGeometry>
        </mxCell>
        <mxCell id="kvMPUhdx5MozveLPKOu3-66" style="edgeStyle=orthogonalEdgeStyle;rounded=0;orthogonalLoop=1;jettySize=auto;html=1;entryX=0.5;entryY=1;entryDx=0;entryDy=0;dashed=1;strokeColor=#336600;exitX=0.5;exitY=0;exitDx=0;exitDy=0;" parent="1" source="kvMPUhdx5MozveLPKOu3-13" target="kvMPUhdx5MozveLPKOu3-7" edge="1">
          <mxGeometry relative="1" as="geometry"/>
        </mxCell>
        <mxCell id="kvMPUhdx5MozveLPKOu3-13" value="&lt;font style=&quot;font-size: 16px&quot;&gt;一般用户&lt;br&gt;user&lt;/font&gt;" style="rounded=1;whiteSpace=wrap;html=1;fillColor=#d5e8d4;strokeColor=#82b366;" parent="1" vertex="1">
          <mxGeometry x="840" y="600" width="120" height="60" as="geometry"/>
        </mxCell>
        <mxCell id="kvMPUhdx5MozveLPKOu3-17" style="edgeStyle=orthogonalEdgeStyle;rounded=0;orthogonalLoop=1;jettySize=auto;html=1;entryX=0.5;entryY=1;entryDx=0;entryDy=0;" parent="1" source="kvMPUhdx5MozveLPKOu3-15" target="kvMPUhdx5MozveLPKOu3-13" edge="1">
          <mxGeometry relative="1" as="geometry"/>
        </mxCell>
        <mxCell id="kvMPUhdx5MozveLPKOu3-15" value="&lt;font style=&quot;font-size: 16px&quot;&gt;游客&lt;br&gt;guest&lt;/font&gt;" style="rounded=1;whiteSpace=wrap;html=1;" parent="1" vertex="1">
          <mxGeometry x="840" y="700" width="120" height="60" as="geometry"/>
        </mxCell>
        <mxCell id="kvMPUhdx5MozveLPKOu3-33" value="海纳云" style="ellipse;whiteSpace=wrap;html=1;fillColor=#dae8fc;strokeColor=#6c8ebf;" parent="1" vertex="1">
          <mxGeometry x="252.5" y="1220" width="197.5" height="120" as="geometry"/>
        </mxCell>
        <mxCell id="kvMPUhdx5MozveLPKOu3-37" style="rounded=0;orthogonalLoop=1;jettySize=auto;html=1;exitX=0.5;exitY=0;exitDx=0;exitDy=0;entryX=0;entryY=1;entryDx=0;entryDy=0;dashed=1;strokeColor=#000099;" parent="1" source="kvMPUhdx5MozveLPKOu3-34" target="kvMPUhdx5MozveLPKOu3-33" edge="1">
          <mxGeometry relative="1" as="geometry"/>
        </mxCell>
        <mxCell id="kvMPUhdx5MozveLPKOu3-34" value="web端" style="rounded=1;whiteSpace=wrap;html=1;fillColor=#ffe6cc;strokeColor=#d79b00;" parent="1" vertex="1">
          <mxGeometry x="99" y="1370" width="120" height="60" as="geometry"/>
        </mxCell>
        <mxCell id="kvMPUhdx5MozveLPKOu3-38" style="edgeStyle=none;rounded=0;orthogonalLoop=1;jettySize=auto;html=1;exitX=0.5;exitY=0;exitDx=0;exitDy=0;dashed=1;strokeColor=#000099;" parent="1" source="kvMPUhdx5MozveLPKOu3-35" target="kvMPUhdx5MozveLPKOu3-33" edge="1">
          <mxGeometry relative="1" as="geometry"/>
        </mxCell>
        <mxCell id="kvMPUhdx5MozveLPKOu3-35" value="App端" style="rounded=1;whiteSpace=wrap;html=1;fillColor=#ffe6cc;strokeColor=#d79b00;" parent="1" vertex="1">
          <mxGeometry x="248" y="1370" width="120" height="60" as="geometry"/>
        </mxCell>
        <mxCell id="kvMPUhdx5MozveLPKOu3-39" style="edgeStyle=none;rounded=0;orthogonalLoop=1;jettySize=auto;html=1;entryX=1;entryY=1;entryDx=0;entryDy=0;dashed=1;strokeColor=#000099;" parent="1" source="kvMPUhdx5MozveLPKOu3-36" target="kvMPUhdx5MozveLPKOu3-33" edge="1">
          <mxGeometry relative="1" as="geometry"/>
        </mxCell>
        <mxCell id="kvMPUhdx5MozveLPKOu3-36" value="微信（公众号/小程序）" style="rounded=1;whiteSpace=wrap;html=1;fillColor=#ffe6cc;strokeColor=#d79b00;" parent="1" vertex="1">
          <mxGeometry x="390" y="1370" width="140" height="60" as="geometry"/>
        </mxCell>
        <mxCell id="kvMPUhdx5MozveLPKOu3-42" style="edgeStyle=none;rounded=0;orthogonalLoop=1;jettySize=auto;html=1;entryX=1;entryY=0.5;entryDx=0;entryDy=0;dashed=1;strokeColor=#000099;" parent="1" source="kvMPUhdx5MozveLPKOu3-40" target="kvMPUhdx5MozveLPKOu3-33" edge="1">
          <mxGeometry relative="1" as="geometry"/>
        </mxCell>
        <mxCell id="kvMPUhdx5MozveLPKOu3-40" value="业务系统" style="rounded=1;whiteSpace=wrap;html=1;fillColor=#fff2cc;strokeColor=#d6b656;" parent="1" vertex="1">
          <mxGeometry x="605" y="1200" width="121" height="51.29" as="geometry"/>
        </mxCell>
        <mxCell id="kvMPUhdx5MozveLPKOu3-43" style="edgeStyle=none;rounded=0;orthogonalLoop=1;jettySize=auto;html=1;dashed=1;strokeColor=#000099;" parent="1" source="kvMPUhdx5MozveLPKOu3-41" edge="1">
          <mxGeometry relative="1" as="geometry">
            <mxPoint x="450" y="1280" as="targetPoint"/>
          </mxGeometry>
        </mxCell>
        <mxCell id="kvMPUhdx5MozveLPKOu3-41" value="监管系统" style="rounded=1;whiteSpace=wrap;html=1;fillColor=#fff2cc;strokeColor=#d6b656;" parent="1" vertex="1">
          <mxGeometry x="610" y="1310" width="116" height="60" as="geometry"/>
        </mxCell>
        <mxCell id="kvMPUhdx5MozveLPKOu3-52" style="edgeStyle=none;rounded=0;orthogonalLoop=1;jettySize=auto;html=1;exitX=0;exitY=0.25;exitDx=0;exitDy=0;entryX=1;entryY=0.5;entryDx=0;entryDy=0;dashed=1;strokeColor=#000099;" parent="1" source="kvMPUhdx5MozveLPKOu3-46" target="kvMPUhdx5MozveLPKOu3-40" edge="1">
          <mxGeometry relative="1" as="geometry"/>
        </mxCell>
        <mxCell id="kvMPUhdx5MozveLPKOu3-46" value="web端" style="rounded=1;whiteSpace=wrap;html=1;fillColor=#ffe6cc;strokeColor=#d79b00;" parent="1" vertex="1">
          <mxGeometry x="790" y="1150" width="69.5" height="30" as="geometry"/>
        </mxCell>
        <mxCell id="kvMPUhdx5MozveLPKOu3-53" style="edgeStyle=none;rounded=0;orthogonalLoop=1;jettySize=auto;html=1;dashed=1;strokeColor=#000099;entryX=1;entryY=0.5;entryDx=0;entryDy=0;" parent="1" source="kvMPUhdx5MozveLPKOu3-47" target="kvMPUhdx5MozveLPKOu3-40" edge="1">
          <mxGeometry relative="1" as="geometry">
            <mxPoint x="730" y="1210" as="targetPoint"/>
          </mxGeometry>
        </mxCell>
        <mxCell id="kvMPUhdx5MozveLPKOu3-47" value="App端" style="rounded=1;whiteSpace=wrap;html=1;fillColor=#ffe6cc;strokeColor=#d79b00;" parent="1" vertex="1">
          <mxGeometry x="790" y="1190" width="70" height="30" as="geometry"/>
        </mxCell>
        <mxCell id="kvMPUhdx5MozveLPKOu3-54" style="edgeStyle=none;rounded=0;orthogonalLoop=1;jettySize=auto;html=1;entryX=1;entryY=0.5;entryDx=0;entryDy=0;dashed=1;strokeColor=#000099;" parent="1" source="kvMPUhdx5MozveLPKOu3-48" target="kvMPUhdx5MozveLPKOu3-40" edge="1">
          <mxGeometry relative="1" as="geometry"/>
        </mxCell>
        <mxCell id="kvMPUhdx5MozveLPKOu3-48" value="微信（公众号/小程序）" style="rounded=1;whiteSpace=wrap;html=1;fillColor=#ffe6cc;strokeColor=#d79b00;" parent="1" vertex="1">
          <mxGeometry x="790" y="1230" width="77.38" height="40" as="geometry"/>
        </mxCell>
        <mxCell id="kvMPUhdx5MozveLPKOu3-55" style="edgeStyle=none;rounded=0;orthogonalLoop=1;jettySize=auto;html=1;exitX=0;exitY=0.5;exitDx=0;exitDy=0;entryX=1;entryY=0.5;entryDx=0;entryDy=0;dashed=1;strokeColor=#000099;" parent="1" source="kvMPUhdx5MozveLPKOu3-49" target="kvMPUhdx5MozveLPKOu3-41" edge="1">
          <mxGeometry relative="1" as="geometry"/>
        </mxCell>
        <mxCell id="kvMPUhdx5MozveLPKOu3-49" value="web端" style="rounded=1;whiteSpace=wrap;html=1;fillColor=#ffe6cc;strokeColor=#d79b00;" parent="1" vertex="1">
          <mxGeometry x="790.5" y="1310" width="79.5" height="40" as="geometry"/>
        </mxCell>
        <mxCell id="kvMPUhdx5MozveLPKOu3-56" style="edgeStyle=none;rounded=0;orthogonalLoop=1;jettySize=auto;html=1;entryX=1;entryY=0.5;entryDx=0;entryDy=0;dashed=1;strokeColor=#000099;" parent="1" source="kvMPUhdx5MozveLPKOu3-50" target="kvMPUhdx5MozveLPKOu3-41" edge="1">
          <mxGeometry relative="1" as="geometry"/>
        </mxCell>
        <mxCell id="kvMPUhdx5MozveLPKOu3-50" value="App端" style="rounded=1;whiteSpace=wrap;html=1;fillColor=#ffe6cc;strokeColor=#d79b00;" parent="1" vertex="1">
          <mxGeometry x="790" y="1360" width="80" height="30" as="geometry"/>
        </mxCell>
        <mxCell id="kvMPUhdx5MozveLPKOu3-57" style="edgeStyle=none;rounded=0;orthogonalLoop=1;jettySize=auto;html=1;entryX=1;entryY=0.5;entryDx=0;entryDy=0;dashed=1;strokeColor=#000099;" parent="1" source="kvMPUhdx5MozveLPKOu3-51" target="kvMPUhdx5MozveLPKOu3-41" edge="1">
          <mxGeometry relative="1" as="geometry"/>
        </mxCell>
        <mxCell id="kvMPUhdx5MozveLPKOu3-51" value="微信（公众号/小程序）" style="rounded=1;whiteSpace=wrap;html=1;fillColor=#ffe6cc;strokeColor=#d79b00;" parent="1" vertex="1">
          <mxGeometry x="790" y="1400" width="77.38" height="40" as="geometry"/>
        </mxCell>
        <mxCell id="kvMPUhdx5MozveLPKOu3-60" style="edgeStyle=orthogonalEdgeStyle;rounded=0;orthogonalLoop=1;jettySize=auto;html=1;entryX=0.5;entryY=1;entryDx=0;entryDy=0;strokeColor=#000099;" parent="1" source="kvMPUhdx5MozveLPKOu3-58" target="zYP_ZSxPphD_Wm0hPU5A-19" edge="1">
          <mxGeometry relative="1" as="geometry">
            <Array as="points">
              <mxPoint x="2328" y="860"/>
              <mxPoint x="2218" y="860"/>
            </Array>
          </mxGeometry>
        </mxCell>
        <mxCell id="kvMPUhdx5MozveLPKOu3-58" value="&lt;font style=&quot;font-size: 16px&quot;&gt;买方3&lt;/font&gt;" style="rounded=1;whiteSpace=wrap;html=1;" parent="1" vertex="1">
          <mxGeometry x="2288" y="883.2499999999999" width="80" height="40" as="geometry"/>
        </mxCell>
        <mxCell id="kvMPUhdx5MozveLPKOu3-67" value="&lt;font style=&quot;font-size: 16px&quot;&gt;机构1&lt;br&gt;dept_id&lt;/font&gt;" style="rounded=1;whiteSpace=wrap;html=1;" parent="1" vertex="1">
          <mxGeometry x="249" y="708.25" width="80" height="40" as="geometry"/>
        </mxCell>
        <mxCell id="kvMPUhdx5MozveLPKOu3-68" style="edgeStyle=orthogonalEdgeStyle;rounded=0;orthogonalLoop=1;jettySize=auto;html=1;exitX=0.5;exitY=0;exitDx=0;exitDy=0;entryX=0.5;entryY=1;entryDx=0;entryDy=0;" parent="1" source="kvMPUhdx5MozveLPKOu3-69" target="kvMPUhdx5MozveLPKOu3-67" edge="1">
          <mxGeometry relative="1" as="geometry"/>
        </mxCell>
        <mxCell id="kvMPUhdx5MozveLPKOu3-69" value="&lt;font style=&quot;font-size: 16px&quot;&gt;用户2&lt;br&gt;use_id&lt;/font&gt;" style="rounded=1;whiteSpace=wrap;html=1;" parent="1" vertex="1">
          <mxGeometry x="169" y="798.25" width="70" height="40" as="geometry"/>
        </mxCell>
        <mxCell id="kvMPUhdx5MozveLPKOu3-70" style="edgeStyle=orthogonalEdgeStyle;rounded=0;orthogonalLoop=1;jettySize=auto;html=1;exitX=0.5;exitY=0;exitDx=0;exitDy=0;entryX=0.5;entryY=1;entryDx=0;entryDy=0;" parent="1" source="kvMPUhdx5MozveLPKOu3-71" target="kvMPUhdx5MozveLPKOu3-67" edge="1">
          <mxGeometry relative="1" as="geometry">
            <mxPoint x="249" y="748.25" as="targetPoint"/>
          </mxGeometry>
        </mxCell>
        <mxCell id="kvMPUhdx5MozveLPKOu3-71" value="&lt;font style=&quot;font-size: 16px&quot;&gt;用户1&lt;br&gt;use_id&lt;/font&gt;" style="rounded=1;whiteSpace=wrap;html=1;" parent="1" vertex="1">
          <mxGeometry x="259" y="798.25" width="70" height="40" as="geometry"/>
        </mxCell>
        <mxCell id="kvMPUhdx5MozveLPKOu3-72" style="edgeStyle=orthogonalEdgeStyle;rounded=0;orthogonalLoop=1;jettySize=auto;html=1;exitX=0.5;exitY=0;exitDx=0;exitDy=0;entryX=0.5;entryY=1;entryDx=0;entryDy=0;" parent="1" source="kvMPUhdx5MozveLPKOu3-73" target="kvMPUhdx5MozveLPKOu3-67" edge="1">
          <mxGeometry relative="1" as="geometry">
            <mxPoint x="249" y="748.25" as="targetPoint"/>
          </mxGeometry>
        </mxCell>
        <mxCell id="kvMPUhdx5MozveLPKOu3-73" value="&lt;font style=&quot;font-size: 16px&quot;&gt;管理员1&lt;br&gt;use_id&lt;/font&gt;" style="rounded=1;whiteSpace=wrap;html=1;" parent="1" vertex="1">
          <mxGeometry x="339" y="798.25" width="70" height="40" as="geometry"/>
        </mxCell>
        <mxCell id="kvMPUhdx5MozveLPKOu3-74" value="&lt;font style=&quot;font-size: 16px&quot;&gt;机构1&lt;br&gt;dept_id&lt;/font&gt;" style="rounded=1;whiteSpace=wrap;html=1;" parent="1" vertex="1">
          <mxGeometry x="510" y="708.25" width="80" height="40" as="geometry"/>
        </mxCell>
        <mxCell id="kvMPUhdx5MozveLPKOu3-75" style="edgeStyle=orthogonalEdgeStyle;rounded=0;orthogonalLoop=1;jettySize=auto;html=1;exitX=0.5;exitY=0;exitDx=0;exitDy=0;entryX=0.5;entryY=1;entryDx=0;entryDy=0;" parent="1" source="kvMPUhdx5MozveLPKOu3-76" target="kvMPUhdx5MozveLPKOu3-74" edge="1">
          <mxGeometry relative="1" as="geometry"/>
        </mxCell>
        <mxCell id="kvMPUhdx5MozveLPKOu3-76" value="&lt;font style=&quot;font-size: 16px&quot;&gt;用户2&lt;br&gt;use_id&lt;/font&gt;" style="rounded=1;whiteSpace=wrap;html=1;" parent="1" vertex="1">
          <mxGeometry x="430" y="798.25" width="70" height="40" as="geometry"/>
        </mxCell>
        <mxCell id="kvMPUhdx5MozveLPKOu3-77" style="edgeStyle=orthogonalEdgeStyle;rounded=0;orthogonalLoop=1;jettySize=auto;html=1;exitX=0.5;exitY=0;exitDx=0;exitDy=0;entryX=0.5;entryY=1;entryDx=0;entryDy=0;" parent="1" source="kvMPUhdx5MozveLPKOu3-78" target="kvMPUhdx5MozveLPKOu3-74" edge="1">
          <mxGeometry relative="1" as="geometry">
            <mxPoint x="510" y="748.25" as="targetPoint"/>
          </mxGeometry>
        </mxCell>
        <mxCell id="kvMPUhdx5MozveLPKOu3-78" value="&lt;font style=&quot;font-size: 16px&quot;&gt;用户1&lt;br&gt;use_id&lt;/font&gt;" style="rounded=1;whiteSpace=wrap;html=1;" parent="1" vertex="1">
          <mxGeometry x="520" y="798.25" width="70" height="40" as="geometry"/>
        </mxCell>
        <mxCell id="kvMPUhdx5MozveLPKOu3-79" style="edgeStyle=orthogonalEdgeStyle;rounded=0;orthogonalLoop=1;jettySize=auto;html=1;exitX=0.5;exitY=0;exitDx=0;exitDy=0;entryX=0.5;entryY=1;entryDx=0;entryDy=0;" parent="1" source="kvMPUhdx5MozveLPKOu3-80" target="kvMPUhdx5MozveLPKOu3-74" edge="1">
          <mxGeometry relative="1" as="geometry">
            <mxPoint x="510" y="748.25" as="targetPoint"/>
          </mxGeometry>
        </mxCell>
        <mxCell id="kvMPUhdx5MozveLPKOu3-80" value="&lt;font style=&quot;font-size: 16px&quot;&gt;管理员1&lt;br&gt;use_id&lt;/font&gt;" style="rounded=1;whiteSpace=wrap;html=1;" parent="1" vertex="1">
          <mxGeometry x="600" y="798.25" width="70" height="40" as="geometry"/>
        </mxCell>
        <mxCell id="kvMPUhdx5MozveLPKOu3-81" style="edgeStyle=orthogonalEdgeStyle;rounded=0;orthogonalLoop=1;jettySize=auto;html=1;exitX=1;exitY=0.75;exitDx=0;exitDy=0;entryX=0.75;entryY=1;entryDx=0;entryDy=0;dashed=1;strokeColor=#336600;" parent="1" source="zYP_ZSxPphD_Wm0hPU5A-20" target="zYP_ZSxPphD_Wm0hPU5A-20" edge="1">
          <mxGeometry relative="1" as="geometry"/>
        </mxCell>
        <mxCell id="75kRpRerKS7Qdfuh7GLK-1" value="机构id" style="rounded=1;whiteSpace=wrap;html=1;" parent="1" vertex="1">
          <mxGeometry x="1440" y="1330" width="120" height="60" as="geometry"/>
        </mxCell>
        <mxCell id="75kRpRerKS7Qdfuh7GLK-6" style="edgeStyle=orthogonalEdgeStyle;rounded=0;orthogonalLoop=1;jettySize=auto;html=1;exitX=0;exitY=0.5;exitDx=0;exitDy=0;entryX=1;entryY=0.5;entryDx=0;entryDy=0;" parent="1" source="75kRpRerKS7Qdfuh7GLK-2" target="75kRpRerKS7Qdfuh7GLK-1" edge="1">
          <mxGeometry relative="1" as="geometry"/>
        </mxCell>
        <mxCell id="75kRpRerKS7Qdfuh7GLK-8" style="edgeStyle=orthogonalEdgeStyle;rounded=0;orthogonalLoop=1;jettySize=auto;html=1;exitX=0.5;exitY=1;exitDx=0;exitDy=0;" parent="1" source="75kRpRerKS7Qdfuh7GLK-2" target="75kRpRerKS7Qdfuh7GLK-7" edge="1">
          <mxGeometry relative="1" as="geometry"/>
        </mxCell>
        <mxCell id="75kRpRerKS7Qdfuh7GLK-2" value="用户id" style="rounded=1;whiteSpace=wrap;html=1;" parent="1" vertex="1">
          <mxGeometry x="1630" y="1330" width="120" height="60" as="geometry"/>
        </mxCell>
        <mxCell id="75kRpRerKS7Qdfuh7GLK-12" style="edgeStyle=orthogonalEdgeStyle;rounded=0;orthogonalLoop=1;jettySize=auto;html=1;entryX=1;entryY=0.5;entryDx=0;entryDy=0;" parent="1" source="75kRpRerKS7Qdfuh7GLK-3" target="75kRpRerKS7Qdfuh7GLK-10" edge="1">
          <mxGeometry relative="1" as="geometry"/>
        </mxCell>
        <mxCell id="75kRpRerKS7Qdfuh7GLK-3" value="仪器id" style="rounded=1;whiteSpace=wrap;html=1;" parent="1" vertex="1">
          <mxGeometry x="1280" y="1330" width="90" height="60" as="geometry"/>
        </mxCell>
        <mxCell id="75kRpRerKS7Qdfuh7GLK-4" value="" style="endArrow=classic;startArrow=classic;html=1;entryX=0;entryY=0.5;entryDx=0;entryDy=0;exitX=1;exitY=0.5;exitDx=0;exitDy=0;" parent="1" source="75kRpRerKS7Qdfuh7GLK-3" target="75kRpRerKS7Qdfuh7GLK-1" edge="1">
          <mxGeometry width="50" height="50" relative="1" as="geometry">
            <mxPoint x="1390" y="1360" as="sourcePoint"/>
            <mxPoint x="1430" y="1310" as="targetPoint"/>
          </mxGeometry>
        </mxCell>
        <mxCell id="75kRpRerKS7Qdfuh7GLK-11" style="edgeStyle=orthogonalEdgeStyle;rounded=0;orthogonalLoop=1;jettySize=auto;html=1;entryX=1;entryY=0.5;entryDx=0;entryDy=0;" parent="1" source="75kRpRerKS7Qdfuh7GLK-7" target="75kRpRerKS7Qdfuh7GLK-9" edge="1">
          <mxGeometry relative="1" as="geometry"/>
        </mxCell>
        <mxCell id="75kRpRerKS7Qdfuh7GLK-7" value="角色" style="rounded=1;whiteSpace=wrap;html=1;" parent="1" vertex="1">
          <mxGeometry x="1630" y="1460" width="120" height="60" as="geometry"/>
        </mxCell>
        <mxCell id="75kRpRerKS7Qdfuh7GLK-13" style="edgeStyle=orthogonalEdgeStyle;rounded=0;orthogonalLoop=1;jettySize=auto;html=1;" parent="1" source="75kRpRerKS7Qdfuh7GLK-9" edge="1">
          <mxGeometry relative="1" as="geometry">
            <mxPoint x="1190" y="1490" as="targetPoint"/>
          </mxGeometry>
        </mxCell>
        <mxCell id="75kRpRerKS7Qdfuh7GLK-9" value="API" style="rounded=1;whiteSpace=wrap;html=1;" parent="1" vertex="1">
          <mxGeometry x="1350" y="1460" width="105" height="60" as="geometry"/>
        </mxCell>
        <mxCell id="75kRpRerKS7Qdfuh7GLK-10" value="仪器数据" style="rounded=1;whiteSpace=wrap;html=1;" parent="1" vertex="1">
          <mxGeometry x="1060" y="1460" width="130" height="60" as="geometry"/>
        </mxCell>
        <mxCell id="75kRpRerKS7Qdfuh7GLK-14" value="数据权限" style="text;html=1;strokeColor=#d79b00;fillColor=#ffe6cc;align=center;verticalAlign=middle;whiteSpace=wrap;rounded=0;" parent="1" vertex="1">
          <mxGeometry x="1209.59" y="1380" width="60" height="20" as="geometry"/>
        </mxCell>
        <mxCell id="75kRpRerKS7Qdfuh7GLK-15" value="逻辑权限" style="text;html=1;strokeColor=#d79b00;fillColor=#ffe6cc;align=center;verticalAlign=middle;whiteSpace=wrap;rounded=0;" parent="1" vertex="1">
          <mxGeometry x="1260" y="1470" width="60" height="20" as="geometry"/>
        </mxCell>
        <mxCell id="xy5BYnJL3aqH37BZyjNQ-11" style="edgeStyle=orthogonalEdgeStyle;rounded=0;orthogonalLoop=1;jettySize=auto;html=1;entryX=0;entryY=0.5;entryDx=0;entryDy=0;" parent="1" source="xy5BYnJL3aqH37BZyjNQ-2" target="xy5BYnJL3aqH37BZyjNQ-9" edge="1">
          <mxGeometry relative="1" as="geometry"/>
        </mxCell>
        <mxCell id="xy5BYnJL3aqH37BZyjNQ-12" style="edgeStyle=orthogonalEdgeStyle;rounded=0;orthogonalLoop=1;jettySize=auto;html=1;" parent="1" source="xy5BYnJL3aqH37BZyjNQ-2" target="xy5BYnJL3aqH37BZyjNQ-8" edge="1">
          <mxGeometry relative="1" as="geometry"/>
        </mxCell>
        <mxCell id="xy5BYnJL3aqH37BZyjNQ-2" value="用户校验" style="strokeWidth=2;html=1;shape=mxgraph.flowchart.decision;whiteSpace=wrap;fillColor=#fff2cc;strokeColor=#d6b656;" parent="1" vertex="1">
          <mxGeometry x="1250" y="1670" width="110" height="70" as="geometry"/>
        </mxCell>
        <mxCell id="xy5BYnJL3aqH37BZyjNQ-10" style="edgeStyle=orthogonalEdgeStyle;rounded=0;orthogonalLoop=1;jettySize=auto;html=1;" parent="1" source="xy5BYnJL3aqH37BZyjNQ-6" target="xy5BYnJL3aqH37BZyjNQ-2" edge="1">
          <mxGeometry relative="1" as="geometry"/>
        </mxCell>
        <mxCell id="xy5BYnJL3aqH37BZyjNQ-6" value="用户登录" style="shape=hexagon;perimeter=hexagonPerimeter2;whiteSpace=wrap;html=1;fillColor=#d5e8d4;strokeColor=#82b366;" parent="1" vertex="1">
          <mxGeometry x="1070" y="1675" width="90" height="60" as="geometry"/>
        </mxCell>
        <mxCell id="xy5BYnJL3aqH37BZyjNQ-15" style="edgeStyle=orthogonalEdgeStyle;rounded=0;orthogonalLoop=1;jettySize=auto;html=1;entryX=0.5;entryY=0;entryDx=0;entryDy=0;" parent="1" source="xy5BYnJL3aqH37BZyjNQ-8" target="xy5BYnJL3aqH37BZyjNQ-13" edge="1">
          <mxGeometry relative="1" as="geometry"/>
        </mxCell>
        <mxCell id="xy5BYnJL3aqH37BZyjNQ-8" value="获取token" style="rounded=0;whiteSpace=wrap;html=1;fillColor=#dae8fc;strokeColor=#6c8ebf;" parent="1" vertex="1">
          <mxGeometry x="1255" y="1790" width="100" height="50" as="geometry"/>
        </mxCell>
        <mxCell id="xy5BYnJL3aqH37BZyjNQ-9" value="登录失败" style="rounded=0;whiteSpace=wrap;html=1;fillColor=#f5f5f5;strokeColor=#666666;fontColor=#333333;" parent="1" vertex="1">
          <mxGeometry x="1442" y="1680" width="100" height="50" as="geometry"/>
        </mxCell>
        <mxCell id="xy5BYnJL3aqH37BZyjNQ-16" style="edgeStyle=orthogonalEdgeStyle;rounded=0;orthogonalLoop=1;jettySize=auto;html=1;" parent="1" source="xy5BYnJL3aqH37BZyjNQ-13" target="xy5BYnJL3aqH37BZyjNQ-14" edge="1">
          <mxGeometry relative="1" as="geometry"/>
        </mxCell>
        <mxCell id="xy5BYnJL3aqH37BZyjNQ-23" style="edgeStyle=orthogonalEdgeStyle;rounded=0;orthogonalLoop=1;jettySize=auto;html=1;" parent="1" source="xy5BYnJL3aqH37BZyjNQ-13" target="xy5BYnJL3aqH37BZyjNQ-17" edge="1">
          <mxGeometry relative="1" as="geometry"/>
        </mxCell>
        <mxCell id="xy5BYnJL3aqH37BZyjNQ-13" value="访问资源权限验证" style="rhombus;whiteSpace=wrap;html=1;fillColor=#fff2cc;strokeColor=#d6b656;" parent="1" vertex="1">
          <mxGeometry x="1246.5" y="1878" width="117" height="80" as="geometry"/>
        </mxCell>
        <mxCell id="xy5BYnJL3aqH37BZyjNQ-29" style="edgeStyle=entityRelationEdgeStyle;rounded=0;orthogonalLoop=1;jettySize=auto;html=1;entryX=0;entryY=0.25;entryDx=0;entryDy=0;" parent="1" source="xy5BYnJL3aqH37BZyjNQ-14" target="xy5BYnJL3aqH37BZyjNQ-19" edge="1">
          <mxGeometry relative="1" as="geometry"/>
        </mxCell>
        <mxCell id="xy5BYnJL3aqH37BZyjNQ-30" style="edgeStyle=entityRelationEdgeStyle;rounded=0;orthogonalLoop=1;jettySize=auto;html=1;" parent="1" source="xy5BYnJL3aqH37BZyjNQ-14" target="xy5BYnJL3aqH37BZyjNQ-20" edge="1">
          <mxGeometry relative="1" as="geometry"/>
        </mxCell>
        <mxCell id="xy5BYnJL3aqH37BZyjNQ-31" style="edgeStyle=entityRelationEdgeStyle;rounded=0;orthogonalLoop=1;jettySize=auto;html=1;" parent="1" source="xy5BYnJL3aqH37BZyjNQ-14" target="xy5BYnJL3aqH37BZyjNQ-21" edge="1">
          <mxGeometry relative="1" as="geometry"/>
        </mxCell>
        <mxCell id="xy5BYnJL3aqH37BZyjNQ-14" value="权限校核" style="rounded=0;whiteSpace=wrap;html=1;fillColor=#dae8fc;strokeColor=#6c8ebf;" parent="1" vertex="1">
          <mxGeometry x="1420" y="1893" width="100" height="50" as="geometry"/>
        </mxCell>
        <mxCell id="xy5BYnJL3aqH37BZyjNQ-22" style="edgeStyle=orthogonalEdgeStyle;rounded=0;orthogonalLoop=1;jettySize=auto;html=1;entryX=0;entryY=0.5;entryDx=0;entryDy=0;exitX=0;exitY=0.5;exitDx=0;exitDy=0;" parent="1" source="xy5BYnJL3aqH37BZyjNQ-17" target="xy5BYnJL3aqH37BZyjNQ-13" edge="1">
          <mxGeometry relative="1" as="geometry">
            <Array as="points">
              <mxPoint x="1194" y="2035"/>
              <mxPoint x="1194" y="1918"/>
            </Array>
          </mxGeometry>
        </mxCell>
        <mxCell id="xy5BYnJL3aqH37BZyjNQ-25" style="edgeStyle=orthogonalEdgeStyle;rounded=0;orthogonalLoop=1;jettySize=auto;html=1;entryX=0.5;entryY=0;entryDx=0;entryDy=0;" parent="1" source="xy5BYnJL3aqH37BZyjNQ-17" target="xy5BYnJL3aqH37BZyjNQ-26" edge="1">
          <mxGeometry relative="1" as="geometry">
            <mxPoint x="1305" y="2100" as="targetPoint"/>
          </mxGeometry>
        </mxCell>
        <mxCell id="xy5BYnJL3aqH37BZyjNQ-17" value="访问以及操作" style="rounded=0;whiteSpace=wrap;html=1;fillColor=#dae8fc;strokeColor=#6c8ebf;" parent="1" vertex="1">
          <mxGeometry x="1252.5" y="2010" width="105" height="50" as="geometry"/>
        </mxCell>
        <mxCell id="xy5BYnJL3aqH37BZyjNQ-18" value="正常退出" style="shape=hexagon;perimeter=hexagonPerimeter2;whiteSpace=wrap;html=1;fillColor=#d5e8d4;strokeColor=#82b366;" parent="1" vertex="1">
          <mxGeometry x="1255" y="2250" width="100" height="60" as="geometry"/>
        </mxCell>
        <mxCell id="xy5BYnJL3aqH37BZyjNQ-40" style="edgeStyle=entityRelationEdgeStyle;rounded=0;orthogonalLoop=1;jettySize=auto;html=1;entryX=0;entryY=0.5;entryDx=0;entryDy=0;" parent="1" source="xy5BYnJL3aqH37BZyjNQ-19" target="xy5BYnJL3aqH37BZyjNQ-32" edge="1">
          <mxGeometry relative="1" as="geometry"/>
        </mxCell>
        <mxCell id="xy5BYnJL3aqH37BZyjNQ-19" value="token过期" style="rounded=0;whiteSpace=wrap;html=1;fillColor=#f5f5f5;strokeColor=#666666;fontColor=#333333;" parent="1" vertex="1">
          <mxGeometry x="1636" y="1820" width="92" height="40" as="geometry"/>
        </mxCell>
        <mxCell id="xy5BYnJL3aqH37BZyjNQ-65" style="edgeStyle=orthogonalEdgeStyle;rounded=0;orthogonalLoop=1;jettySize=auto;html=1;entryX=0;entryY=0.5;entryDx=0;entryDy=0;" parent="1" source="xy5BYnJL3aqH37BZyjNQ-20" target="xy5BYnJL3aqH37BZyjNQ-35" edge="1">
          <mxGeometry relative="1" as="geometry"/>
        </mxCell>
        <mxCell id="xy5BYnJL3aqH37BZyjNQ-20" value="操作未被授权" style="rounded=0;whiteSpace=wrap;html=1;fillColor=#f5f5f5;strokeColor=#666666;fontColor=#333333;" parent="1" vertex="1">
          <mxGeometry x="1632.5" y="1950" width="89.5" height="40" as="geometry"/>
        </mxCell>
        <mxCell id="xy5BYnJL3aqH37BZyjNQ-64" style="edgeStyle=orthogonalEdgeStyle;rounded=0;orthogonalLoop=1;jettySize=auto;html=1;entryX=0;entryY=0.5;entryDx=0;entryDy=0;" parent="1" source="xy5BYnJL3aqH37BZyjNQ-21" target="xy5BYnJL3aqH37BZyjNQ-35" edge="1">
          <mxGeometry relative="1" as="geometry"/>
        </mxCell>
        <mxCell id="xy5BYnJL3aqH37BZyjNQ-21" value="数据未被授权" style="rounded=0;whiteSpace=wrap;html=1;fillColor=#f5f5f5;strokeColor=#666666;fontColor=#333333;" parent="1" vertex="1">
          <mxGeometry x="1633.25" y="2040" width="88.75" height="40" as="geometry"/>
        </mxCell>
        <mxCell id="xy5BYnJL3aqH37BZyjNQ-93" style="edgeStyle=orthogonalEdgeStyle;rounded=0;orthogonalLoop=1;jettySize=auto;html=1;startArrow=none;startFill=0;" parent="1" source="xy5BYnJL3aqH37BZyjNQ-24" target="xy5BYnJL3aqH37BZyjNQ-92" edge="1">
          <mxGeometry relative="1" as="geometry"/>
        </mxCell>
        <mxCell id="xy5BYnJL3aqH37BZyjNQ-24" value="直接关闭" style="rounded=0;whiteSpace=wrap;html=1;fillColor=#f8cecc;strokeColor=#b85450;" parent="1" vertex="1">
          <mxGeometry x="1060" y="2127.5" width="100" height="50" as="geometry"/>
        </mxCell>
        <mxCell id="xy5BYnJL3aqH37BZyjNQ-27" style="edgeStyle=orthogonalEdgeStyle;rounded=0;orthogonalLoop=1;jettySize=auto;html=1;" parent="1" source="xy5BYnJL3aqH37BZyjNQ-26" target="xy5BYnJL3aqH37BZyjNQ-18" edge="1">
          <mxGeometry relative="1" as="geometry"/>
        </mxCell>
        <mxCell id="xy5BYnJL3aqH37BZyjNQ-28" style="edgeStyle=orthogonalEdgeStyle;rounded=0;orthogonalLoop=1;jettySize=auto;html=1;" parent="1" source="xy5BYnJL3aqH37BZyjNQ-26" target="xy5BYnJL3aqH37BZyjNQ-24" edge="1">
          <mxGeometry relative="1" as="geometry"/>
        </mxCell>
        <mxCell id="xy5BYnJL3aqH37BZyjNQ-26" value="是否退出" style="rhombus;whiteSpace=wrap;html=1;fillColor=#fff2cc;strokeColor=#d6b656;" parent="1" vertex="1">
          <mxGeometry x="1240" y="2115" width="130" height="75" as="geometry"/>
        </mxCell>
        <mxCell id="xy5BYnJL3aqH37BZyjNQ-41" style="edgeStyle=entityRelationEdgeStyle;rounded=0;orthogonalLoop=1;jettySize=auto;html=1;" parent="1" source="xy5BYnJL3aqH37BZyjNQ-32" edge="1">
          <mxGeometry relative="1" as="geometry">
            <mxPoint x="1930" y="1840" as="targetPoint"/>
          </mxGeometry>
        </mxCell>
        <mxCell id="xy5BYnJL3aqH37BZyjNQ-32" value="置换新token" style="rounded=0;whiteSpace=wrap;html=1;fillColor=#f8cecc;strokeColor=#b85450;" parent="1" vertex="1">
          <mxGeometry x="1783" y="1817.5" width="90" height="45" as="geometry"/>
        </mxCell>
        <mxCell id="wD9U5RKHlbqDQE6NDfr0-24" style="edgeStyle=orthogonalEdgeStyle;rounded=0;orthogonalLoop=1;jettySize=auto;html=1;" edge="1" parent="1" source="xy5BYnJL3aqH37BZyjNQ-35" target="wD9U5RKHlbqDQE6NDfr0-23">
          <mxGeometry relative="1" as="geometry"/>
        </mxCell>
        <mxCell id="xy5BYnJL3aqH37BZyjNQ-35" value="请求授权" style="rhombus;whiteSpace=wrap;html=1;fillColor=#fff2cc;strokeColor=#d6b656;" parent="1" vertex="1">
          <mxGeometry x="1861" y="1970" width="78" height="70" as="geometry"/>
        </mxCell>
        <mxCell id="xy5BYnJL3aqH37BZyjNQ-44" style="edgeStyle=orthogonalEdgeStyle;rounded=0;orthogonalLoop=1;jettySize=auto;html=1;exitX=0.5;exitY=0;exitDx=0;exitDy=0;entryX=0.5;entryY=0;entryDx=0;entryDy=0;" parent="1" source="xy5BYnJL3aqH37BZyjNQ-39" target="xy5BYnJL3aqH37BZyjNQ-6" edge="1">
          <mxGeometry relative="1" as="geometry">
            <mxPoint x="1890" y="1610" as="targetPoint"/>
            <Array as="points">
              <mxPoint x="1981" y="1643"/>
              <mxPoint x="1115" y="1643"/>
            </Array>
          </mxGeometry>
        </mxCell>
        <mxCell id="xy5BYnJL3aqH37BZyjNQ-45" style="edgeStyle=orthogonalEdgeStyle;rounded=0;orthogonalLoop=1;jettySize=auto;html=1;entryX=0.997;entryY=0.627;entryDx=0;entryDy=0;entryPerimeter=0;" parent="1" source="xy5BYnJL3aqH37BZyjNQ-39" target="xy5BYnJL3aqH37BZyjNQ-8" edge="1">
          <mxGeometry relative="1" as="geometry">
            <Array as="points">
              <mxPoint x="1981" y="1780"/>
              <mxPoint x="1420" y="1780"/>
              <mxPoint x="1420" y="1821"/>
            </Array>
          </mxGeometry>
        </mxCell>
        <mxCell id="xy5BYnJL3aqH37BZyjNQ-39" value="refresh_token 是否过期" style="rhombus;whiteSpace=wrap;html=1;fillColor=#fff2cc;strokeColor=#d6b656;" parent="1" vertex="1">
          <mxGeometry x="1931.5" y="1805" width="98.5" height="70" as="geometry"/>
        </mxCell>
        <mxCell id="xy5BYnJL3aqH37BZyjNQ-54" style="edgeStyle=orthogonalEdgeStyle;rounded=0;orthogonalLoop=1;jettySize=auto;html=1;entryX=0.5;entryY=0;entryDx=0;entryDy=0;" parent="1" source="xy5BYnJL3aqH37BZyjNQ-50" target="xy5BYnJL3aqH37BZyjNQ-51" edge="1">
          <mxGeometry relative="1" as="geometry"/>
        </mxCell>
        <mxCell id="xy5BYnJL3aqH37BZyjNQ-50" value="用户校验" style="rhombus;whiteSpace=wrap;html=1;" parent="1" vertex="1">
          <mxGeometry x="877" y="1647" width="110" height="70" as="geometry"/>
        </mxCell>
        <mxCell id="xy5BYnJL3aqH37BZyjNQ-55" style="edgeStyle=orthogonalEdgeStyle;rounded=0;orthogonalLoop=1;jettySize=auto;html=1;" parent="1" source="xy5BYnJL3aqH37BZyjNQ-51" target="xy5BYnJL3aqH37BZyjNQ-53" edge="1">
          <mxGeometry relative="1" as="geometry"/>
        </mxCell>
        <mxCell id="xy5BYnJL3aqH37BZyjNQ-51" value="用户名，密码&lt;br&gt;客户端，客户端密码&lt;br&gt;DB数据比对" style="rounded=0;whiteSpace=wrap;html=1;" parent="1" vertex="1">
          <mxGeometry x="875" y="1757" width="112.5" height="50" as="geometry"/>
        </mxCell>
        <mxCell id="xy5BYnJL3aqH37BZyjNQ-52" value="用户客户端绑定&lt;br&gt;" style="rounded=0;whiteSpace=wrap;html=1;" parent="1" vertex="1">
          <mxGeometry x="875" y="1932" width="112.5" height="55" as="geometry"/>
        </mxCell>
        <mxCell id="xy5BYnJL3aqH37BZyjNQ-56" style="edgeStyle=orthogonalEdgeStyle;rounded=0;orthogonalLoop=1;jettySize=auto;html=1;entryX=0.5;entryY=0;entryDx=0;entryDy=0;" parent="1" source="xy5BYnJL3aqH37BZyjNQ-53" target="xy5BYnJL3aqH37BZyjNQ-52" edge="1">
          <mxGeometry relative="1" as="geometry"/>
        </mxCell>
        <mxCell id="xy5BYnJL3aqH37BZyjNQ-53" value="重复登录校验&lt;br&gt;内存数据比对" style="rounded=0;whiteSpace=wrap;html=1;" parent="1" vertex="1">
          <mxGeometry x="875" y="1849.5" width="112.5" height="50" as="geometry"/>
        </mxCell>
        <mxCell id="xy5BYnJL3aqH37BZyjNQ-57" value="Y" style="text;html=1;strokeColor=none;fillColor=none;align=center;verticalAlign=middle;whiteSpace=wrap;rounded=0;" parent="1" vertex="1">
          <mxGeometry x="1270" y="1755" width="40" height="20" as="geometry"/>
        </mxCell>
        <mxCell id="xy5BYnJL3aqH37BZyjNQ-58" value="N" style="text;html=1;strokeColor=none;fillColor=none;align=center;verticalAlign=middle;whiteSpace=wrap;rounded=0;" parent="1" vertex="1">
          <mxGeometry x="1370" y="1680" width="40" height="20" as="geometry"/>
        </mxCell>
        <mxCell id="xy5BYnJL3aqH37BZyjNQ-59" value="Y" style="text;html=1;strokeColor=none;fillColor=none;align=center;verticalAlign=middle;whiteSpace=wrap;rounded=0;" parent="1" vertex="1">
          <mxGeometry x="1267" y="1975" width="40" height="20" as="geometry"/>
        </mxCell>
        <mxCell id="xy5BYnJL3aqH37BZyjNQ-60" value="Y" style="text;html=1;strokeColor=none;fillColor=none;align=center;verticalAlign=middle;whiteSpace=wrap;rounded=0;" parent="1" vertex="1">
          <mxGeometry x="1264" y="2202" width="40" height="20" as="geometry"/>
        </mxCell>
        <mxCell id="xy5BYnJL3aqH37BZyjNQ-61" value="N" style="text;html=1;strokeColor=none;fillColor=none;align=center;verticalAlign=middle;whiteSpace=wrap;rounded=0;" parent="1" vertex="1">
          <mxGeometry x="1630" y="1761" width="40" height="20" as="geometry"/>
        </mxCell>
        <mxCell id="xy5BYnJL3aqH37BZyjNQ-62" value="Y" style="text;html=1;strokeColor=none;fillColor=none;align=center;verticalAlign=middle;whiteSpace=wrap;rounded=0;" parent="1" vertex="1">
          <mxGeometry x="1603" y="1623" width="40" height="20" as="geometry"/>
        </mxCell>
        <mxCell id="xy5BYnJL3aqH37BZyjNQ-63" value="N" style="text;html=1;strokeColor=none;fillColor=none;align=center;verticalAlign=middle;whiteSpace=wrap;rounded=0;" parent="1" vertex="1">
          <mxGeometry x="1176" y="2131" width="40" height="20" as="geometry"/>
        </mxCell>
        <mxCell id="xy5BYnJL3aqH37BZyjNQ-74" style="edgeStyle=orthogonalEdgeStyle;rounded=0;orthogonalLoop=1;jettySize=auto;html=1;" parent="1" source="xy5BYnJL3aqH37BZyjNQ-69" target="xy5BYnJL3aqH37BZyjNQ-71" edge="1">
          <mxGeometry relative="1" as="geometry"/>
        </mxCell>
        <mxCell id="xy5BYnJL3aqH37BZyjNQ-69" value="正常退出" style="shape=hexagon;perimeter=hexagonPerimeter2;whiteSpace=wrap;html=1;" parent="1" vertex="1">
          <mxGeometry x="656" y="1648" width="90" height="50" as="geometry"/>
        </mxCell>
        <mxCell id="xy5BYnJL3aqH37BZyjNQ-70" value="N" style="text;html=1;strokeColor=none;fillColor=none;align=center;verticalAlign=middle;whiteSpace=wrap;rounded=0;" parent="1" vertex="1">
          <mxGeometry x="1363.5" y="1893" width="40" height="20" as="geometry"/>
        </mxCell>
        <mxCell id="xy5BYnJL3aqH37BZyjNQ-75" style="edgeStyle=orthogonalEdgeStyle;rounded=0;orthogonalLoop=1;jettySize=auto;html=1;" parent="1" source="xy5BYnJL3aqH37BZyjNQ-71" target="xy5BYnJL3aqH37BZyjNQ-72" edge="1">
          <mxGeometry relative="1" as="geometry"/>
        </mxCell>
        <mxCell id="xy5BYnJL3aqH37BZyjNQ-71" value="校验token" style="rounded=0;whiteSpace=wrap;html=1;" parent="1" vertex="1">
          <mxGeometry x="646" y="1753" width="109" height="52" as="geometry"/>
        </mxCell>
        <mxCell id="xy5BYnJL3aqH37BZyjNQ-76" style="edgeStyle=orthogonalEdgeStyle;rounded=0;orthogonalLoop=1;jettySize=auto;html=1;exitX=0.5;exitY=1;exitDx=0;exitDy=0;" parent="1" source="xy5BYnJL3aqH37BZyjNQ-72" target="xy5BYnJL3aqH37BZyjNQ-73" edge="1">
          <mxGeometry relative="1" as="geometry"/>
        </mxCell>
        <mxCell id="xy5BYnJL3aqH37BZyjNQ-72" value="删除service中的token" style="rounded=0;whiteSpace=wrap;html=1;" parent="1" vertex="1">
          <mxGeometry x="645" y="1832" width="111.5" height="51" as="geometry"/>
        </mxCell>
        <mxCell id="xy5BYnJL3aqH37BZyjNQ-78" style="edgeStyle=entityRelationEdgeStyle;rounded=0;orthogonalLoop=1;jettySize=auto;html=1;entryX=0;entryY=0.5;entryDx=0;entryDy=0;startArrow=classic;startFill=1;" parent="1" source="xy5BYnJL3aqH37BZyjNQ-73" target="xy5BYnJL3aqH37BZyjNQ-53" edge="1">
          <mxGeometry relative="1" as="geometry"/>
        </mxCell>
        <mxCell id="xy5BYnJL3aqH37BZyjNQ-73" value="删除重复登录检测的用户信息" style="rounded=0;whiteSpace=wrap;html=1;" parent="1" vertex="1">
          <mxGeometry x="646" y="1910" width="110" height="55" as="geometry"/>
        </mxCell>
        <mxCell id="xy5BYnJL3aqH37BZyjNQ-85" style="edgeStyle=orthogonalEdgeStyle;rounded=0;orthogonalLoop=1;jettySize=auto;html=1;exitX=0.5;exitY=1;exitDx=0;exitDy=0;entryX=0.5;entryY=0;entryDx=0;entryDy=0;startArrow=none;startFill=0;" parent="1" source="xy5BYnJL3aqH37BZyjNQ-77" target="xy5BYnJL3aqH37BZyjNQ-82" edge="1">
          <mxGeometry relative="1" as="geometry"/>
        </mxCell>
        <mxCell id="xy5BYnJL3aqH37BZyjNQ-77" value="前端持有" style="shape=hexagon;perimeter=hexagonPerimeter2;whiteSpace=wrap;html=1;" parent="1" vertex="1">
          <mxGeometry x="390" y="1648" width="99" height="60" as="geometry"/>
        </mxCell>
        <mxCell id="xy5BYnJL3aqH37BZyjNQ-81" style="edgeStyle=entityRelationEdgeStyle;rounded=0;orthogonalLoop=1;jettySize=auto;html=1;entryX=0;entryY=0.5;entryDx=0;entryDy=0;startArrow=classic;startFill=1;" parent="1" source="xy5BYnJL3aqH37BZyjNQ-79" target="xy5BYnJL3aqH37BZyjNQ-53" edge="1">
          <mxGeometry relative="1" as="geometry"/>
        </mxCell>
        <mxCell id="xy5BYnJL3aqH37BZyjNQ-79" value="直接关闭" style="rounded=0;whiteSpace=wrap;html=1;fillColor=#f8cecc;strokeColor=#b85450;" parent="1" vertex="1">
          <mxGeometry x="666" y="2002" width="83" height="35" as="geometry"/>
        </mxCell>
        <mxCell id="xy5BYnJL3aqH37BZyjNQ-82" value="token" style="rounded=0;whiteSpace=wrap;html=1;" parent="1" vertex="1">
          <mxGeometry x="395" y="1750" width="89" height="44" as="geometry"/>
        </mxCell>
        <mxCell id="xy5BYnJL3aqH37BZyjNQ-86" value="refresh_token" style="rounded=0;whiteSpace=wrap;html=1;" parent="1" vertex="1">
          <mxGeometry x="395" y="1814" width="89" height="44" as="geometry"/>
        </mxCell>
        <mxCell id="xy5BYnJL3aqH37BZyjNQ-88" value="cookie" style="rounded=1;whiteSpace=wrap;html=1;" parent="1" vertex="1">
          <mxGeometry x="395" y="1879" width="91" height="38" as="geometry"/>
        </mxCell>
        <mxCell id="xy5BYnJL3aqH37BZyjNQ-89" value="session" style="rounded=1;whiteSpace=wrap;html=1;" parent="1" vertex="1">
          <mxGeometry x="394" y="1937" width="91" height="38" as="geometry"/>
        </mxCell>
        <mxCell id="xy5BYnJL3aqH37BZyjNQ-94" style="edgeStyle=orthogonalEdgeStyle;rounded=0;orthogonalLoop=1;jettySize=auto;html=1;startArrow=none;startFill=0;" parent="1" source="xy5BYnJL3aqH37BZyjNQ-92" target="xy5BYnJL3aqH37BZyjNQ-18" edge="1">
          <mxGeometry relative="1" as="geometry"/>
        </mxCell>
        <mxCell id="xy5BYnJL3aqH37BZyjNQ-92" value="前端监听&lt;br&gt;调用退出API" style="rounded=0;whiteSpace=wrap;html=1;fillColor=#f8cecc;strokeColor=#b85450;" parent="1" vertex="1">
          <mxGeometry x="1062.5" y="2264" width="95" height="31" as="geometry"/>
        </mxCell>
        <mxCell id="wD9U5RKHlbqDQE6NDfr0-1" value="Filter身份认证" style="rounded=1;whiteSpace=wrap;html=1;" vertex="1" parent="1">
          <mxGeometry x="670.5" y="2352" width="120" height="60" as="geometry"/>
        </mxCell>
        <mxCell id="wD9U5RKHlbqDQE6NDfr0-2" value="AuthenticationProvider检测" style="rounded=1;whiteSpace=wrap;html=1;" vertex="1" parent="1">
          <mxGeometry x="283" y="2357" width="120" height="60" as="geometry"/>
        </mxCell>
        <mxCell id="wD9U5RKHlbqDQE6NDfr0-8" style="edgeStyle=orthogonalEdgeStyle;rounded=0;orthogonalLoop=1;jettySize=auto;html=1;entryX=0;entryY=0.5;entryDx=0;entryDy=0;" edge="1" parent="1" source="wD9U5RKHlbqDQE6NDfr0-3" target="wD9U5RKHlbqDQE6NDfr0-7">
          <mxGeometry relative="1" as="geometry"/>
        </mxCell>
        <mxCell id="wD9U5RKHlbqDQE6NDfr0-3" value="第一次访问" style="rounded=0;whiteSpace=wrap;html=1;" vertex="1" parent="1">
          <mxGeometry x="21" y="2485" width="119" height="32" as="geometry"/>
        </mxCell>
        <mxCell id="wD9U5RKHlbqDQE6NDfr0-4" value="" style="endArrow=none;dashed=1;html=1;entryX=0.5;entryY=1;entryDx=0;entryDy=0;" edge="1" parent="1" source="wD9U5RKHlbqDQE6NDfr0-10" target="wD9U5RKHlbqDQE6NDfr0-1">
          <mxGeometry width="50" height="50" relative="1" as="geometry">
            <mxPoint x="731" y="2835" as="sourcePoint"/>
            <mxPoint x="744.5" y="2453" as="targetPoint"/>
          </mxGeometry>
        </mxCell>
        <mxCell id="wD9U5RKHlbqDQE6NDfr0-5" value="" style="endArrow=none;dashed=1;html=1;entryX=0.5;entryY=1;entryDx=0;entryDy=0;" edge="1" parent="1" target="wD9U5RKHlbqDQE6NDfr0-2">
          <mxGeometry width="50" height="50" relative="1" as="geometry">
            <mxPoint x="343" y="2830" as="sourcePoint"/>
            <mxPoint x="346" y="2439" as="targetPoint"/>
          </mxGeometry>
        </mxCell>
        <mxCell id="wD9U5RKHlbqDQE6NDfr0-14" style="edgeStyle=orthogonalEdgeStyle;rounded=0;orthogonalLoop=1;jettySize=auto;html=1;entryX=0;entryY=0.5;entryDx=0;entryDy=0;" edge="1" parent="1" source="wD9U5RKHlbqDQE6NDfr0-6" target="wD9U5RKHlbqDQE6NDfr0-13">
          <mxGeometry relative="1" as="geometry"/>
        </mxCell>
        <mxCell id="wD9U5RKHlbqDQE6NDfr0-6" value="写入user_id 和client_id到myContext" style="rounded=0;whiteSpace=wrap;html=1;" vertex="1" parent="1">
          <mxGeometry x="670" y="2476" width="120" height="50" as="geometry"/>
        </mxCell>
        <mxCell id="wD9U5RKHlbqDQE6NDfr0-9" style="edgeStyle=orthogonalEdgeStyle;rounded=0;orthogonalLoop=1;jettySize=auto;html=1;entryX=0;entryY=0.5;entryDx=0;entryDy=0;" edge="1" parent="1" source="wD9U5RKHlbqDQE6NDfr0-7" target="wD9U5RKHlbqDQE6NDfr0-6">
          <mxGeometry relative="1" as="geometry"/>
        </mxCell>
        <mxCell id="wD9U5RKHlbqDQE6NDfr0-7" value="检查myContext中&lt;br&gt;user_id client_id是否重复" style="rounded=0;whiteSpace=wrap;html=1;" vertex="1" parent="1">
          <mxGeometry x="279" y="2475" width="122" height="53" as="geometry"/>
        </mxCell>
        <mxCell id="wD9U5RKHlbqDQE6NDfr0-12" value="LogOut" style="rounded=1;whiteSpace=wrap;html=1;" vertex="1" parent="1">
          <mxGeometry x="739.5" y="2162" width="120" height="60" as="geometry"/>
        </mxCell>
        <mxCell id="wD9U5RKHlbqDQE6NDfr0-16" style="edgeStyle=orthogonalEdgeStyle;rounded=0;orthogonalLoop=1;jettySize=auto;html=1;entryX=0.5;entryY=1;entryDx=0;entryDy=0;" edge="1" parent="1" source="wD9U5RKHlbqDQE6NDfr0-13" target="wD9U5RKHlbqDQE6NDfr0-3">
          <mxGeometry relative="1" as="geometry">
            <Array as="points">
              <mxPoint x="963" y="2697"/>
              <mxPoint x="80" y="2697"/>
            </Array>
          </mxGeometry>
        </mxCell>
        <mxCell id="wD9U5RKHlbqDQE6NDfr0-13" value="myContext中清除user_id和client_id" style="rounded=0;whiteSpace=wrap;html=1;" vertex="1" parent="1">
          <mxGeometry x="903" y="2613" width="120" height="50" as="geometry"/>
        </mxCell>
        <mxCell id="wD9U5RKHlbqDQE6NDfr0-10" value="写入user_id 和client_id到myContext" style="rounded=0;whiteSpace=wrap;html=1;" vertex="1" parent="1">
          <mxGeometry x="666" y="2719" width="120" height="50" as="geometry"/>
        </mxCell>
        <mxCell id="wD9U5RKHlbqDQE6NDfr0-20" style="edgeStyle=orthogonalEdgeStyle;rounded=0;orthogonalLoop=1;jettySize=auto;html=1;entryX=0;entryY=0.5;entryDx=0;entryDy=0;" edge="1" parent="1" source="wD9U5RKHlbqDQE6NDfr0-17" target="wD9U5RKHlbqDQE6NDfr0-19">
          <mxGeometry relative="1" as="geometry"/>
        </mxCell>
        <mxCell id="wD9U5RKHlbqDQE6NDfr0-17" value="游客访问" style="shape=hexagon;perimeter=hexagonPerimeter2;whiteSpace=wrap;html=1;" vertex="1" parent="1">
          <mxGeometry x="1057" y="2404" width="83" height="53" as="geometry"/>
        </mxCell>
        <mxCell id="wD9U5RKHlbqDQE6NDfr0-25" style="edgeStyle=orthogonalEdgeStyle;rounded=0;orthogonalLoop=1;jettySize=auto;html=1;" edge="1" parent="1" source="wD9U5RKHlbqDQE6NDfr0-19" target="wD9U5RKHlbqDQE6NDfr0-21">
          <mxGeometry relative="1" as="geometry"/>
        </mxCell>
        <mxCell id="wD9U5RKHlbqDQE6NDfr0-31" style="edgeStyle=orthogonalEdgeStyle;rounded=0;orthogonalLoop=1;jettySize=auto;html=1;entryX=0;entryY=0.5;entryDx=0;entryDy=0;" edge="1" parent="1" source="wD9U5RKHlbqDQE6NDfr0-19" target="wD9U5RKHlbqDQE6NDfr0-30">
          <mxGeometry relative="1" as="geometry"/>
        </mxCell>
        <mxCell id="wD9U5RKHlbqDQE6NDfr0-19" value="访问资源权限验证" style="rhombus;whiteSpace=wrap;html=1;fillColor=#fff2cc;strokeColor=#d6b656;" vertex="1" parent="1">
          <mxGeometry x="1231.5" y="2397" width="109.5" height="68.5" as="geometry"/>
        </mxCell>
        <mxCell id="wD9U5RKHlbqDQE6NDfr0-27" style="edgeStyle=orthogonalEdgeStyle;rounded=0;orthogonalLoop=1;jettySize=auto;html=1;entryX=0;entryY=0.5;entryDx=0;entryDy=0;exitX=0;exitY=0.5;exitDx=0;exitDy=0;" edge="1" parent="1" source="wD9U5RKHlbqDQE6NDfr0-21" target="wD9U5RKHlbqDQE6NDfr0-19">
          <mxGeometry relative="1" as="geometry">
            <Array as="points">
              <mxPoint x="1174" y="2582"/>
              <mxPoint x="1174" y="2431"/>
            </Array>
          </mxGeometry>
        </mxCell>
        <mxCell id="wD9U5RKHlbqDQE6NDfr0-21" value="访问以及操作" style="rounded=0;whiteSpace=wrap;html=1;fillColor=#dae8fc;strokeColor=#6c8ebf;" vertex="1" parent="1">
          <mxGeometry x="1233" y="2558" width="105" height="50" as="geometry"/>
        </mxCell>
        <mxCell id="wD9U5RKHlbqDQE6NDfr0-22" value="海纳云用户Web端登录流程图" style="rounded=0;whiteSpace=wrap;html=1;fillColor=#d5e8d4;strokeColor=#82b366;" vertex="1" parent="1">
          <mxGeometry x="1527" y="2145" width="162" height="50" as="geometry"/>
        </mxCell>
        <mxCell id="wD9U5RKHlbqDQE6NDfr0-23" value="请求消息推送" style="rounded=0;whiteSpace=wrap;html=1;fillColor=#f8cecc;strokeColor=#b85450;" vertex="1" parent="1">
          <mxGeometry x="2012.5" y="1980" width="106" height="50" as="geometry"/>
        </mxCell>
        <mxCell id="wD9U5RKHlbqDQE6NDfr0-28" value="三方登录授权" style="rounded=0;whiteSpace=wrap;html=1;" vertex="1" parent="1">
          <mxGeometry x="1692.5" y="2405.25" width="111" height="52" as="geometry"/>
        </mxCell>
        <mxCell id="wD9U5RKHlbqDQE6NDfr0-40" style="edgeStyle=orthogonalEdgeStyle;rounded=0;orthogonalLoop=1;jettySize=auto;html=1;entryX=0;entryY=0.5;entryDx=0;entryDy=0;" edge="1" parent="1" source="wD9U5RKHlbqDQE6NDfr0-30" target="wD9U5RKHlbqDQE6NDfr0-28">
          <mxGeometry relative="1" as="geometry"/>
        </mxCell>
        <mxCell id="wD9U5RKHlbqDQE6NDfr0-30" value="&lt;span style=&quot;white-space: normal&quot;&gt;三方登录授权&lt;/span&gt;&lt;br style=&quot;white-space: normal&quot;&gt;&lt;span style=&quot;white-space: normal&quot;&gt;（QQ，微信）&lt;/span&gt;" style="rhombus;whiteSpace=wrap;html=1;" vertex="1" parent="1">
          <mxGeometry x="1442" y="2396" width="131" height="70" as="geometry"/>
        </mxCell>
        <mxCell id="wD9U5RKHlbqDQE6NDfr0-42" style="edgeStyle=orthogonalEdgeStyle;rounded=0;orthogonalLoop=1;jettySize=auto;html=1;" edge="1" parent="1" source="wD9U5RKHlbqDQE6NDfr0-33" target="wD9U5RKHlbqDQE6NDfr0-41">
          <mxGeometry relative="1" as="geometry"/>
        </mxCell>
        <mxCell id="wD9U5RKHlbqDQE6NDfr0-33" value="游客访问" style="shape=hexagon;perimeter=hexagonPerimeter2;whiteSpace=wrap;html=1;" vertex="1" parent="1">
          <mxGeometry x="1047" y="2777" width="83" height="53" as="geometry"/>
        </mxCell>
        <mxCell id="wD9U5RKHlbqDQE6NDfr0-48" style="edgeStyle=orthogonalEdgeStyle;rounded=0;orthogonalLoop=1;jettySize=auto;html=1;" edge="1" parent="1" source="wD9U5RKHlbqDQE6NDfr0-36" target="wD9U5RKHlbqDQE6NDfr0-38">
          <mxGeometry relative="1" as="geometry"/>
        </mxCell>
        <mxCell id="wD9U5RKHlbqDQE6NDfr0-36" value="访问资源权限验证" style="rhombus;whiteSpace=wrap;html=1;fillColor=#fff2cc;strokeColor=#d6b656;" vertex="1" parent="1">
          <mxGeometry x="1220.09" y="3051" width="109.5" height="68.5" as="geometry"/>
        </mxCell>
        <mxCell id="wD9U5RKHlbqDQE6NDfr0-49" style="edgeStyle=orthogonalEdgeStyle;rounded=0;orthogonalLoop=1;jettySize=auto;html=1;entryX=0;entryY=0.5;entryDx=0;entryDy=0;exitX=0;exitY=0.5;exitDx=0;exitDy=0;" edge="1" parent="1" source="wD9U5RKHlbqDQE6NDfr0-38" target="wD9U5RKHlbqDQE6NDfr0-36">
          <mxGeometry relative="1" as="geometry">
            <Array as="points">
              <mxPoint x="1199.75" y="3218"/>
              <mxPoint x="1199.75" y="3085"/>
            </Array>
          </mxGeometry>
        </mxCell>
        <mxCell id="wD9U5RKHlbqDQE6NDfr0-38" value="访问以及操作" style="rounded=0;whiteSpace=wrap;html=1;fillColor=#dae8fc;strokeColor=#6c8ebf;" vertex="1" parent="1">
          <mxGeometry x="1222.09" y="3193" width="105" height="50" as="geometry"/>
        </mxCell>
        <mxCell id="wD9U5RKHlbqDQE6NDfr0-46" style="edgeStyle=orthogonalEdgeStyle;rounded=0;orthogonalLoop=1;jettySize=auto;html=1;" edge="1" parent="1" source="wD9U5RKHlbqDQE6NDfr0-41" target="wD9U5RKHlbqDQE6NDfr0-45">
          <mxGeometry relative="1" as="geometry"/>
        </mxCell>
        <mxCell id="wD9U5RKHlbqDQE6NDfr0-41" value="&lt;span style=&quot;white-space: normal&quot;&gt;三方登录授权&lt;/span&gt;&lt;br style=&quot;white-space: normal&quot;&gt;&lt;span style=&quot;white-space: normal&quot;&gt;（QQ，微信）&lt;/span&gt;" style="rhombus;whiteSpace=wrap;html=1;" vertex="1" parent="1">
          <mxGeometry x="1209.59" y="2769" width="131" height="70" as="geometry"/>
        </mxCell>
        <mxCell id="wD9U5RKHlbqDQE6NDfr0-47" style="edgeStyle=orthogonalEdgeStyle;rounded=0;orthogonalLoop=1;jettySize=auto;html=1;" edge="1" parent="1" source="wD9U5RKHlbqDQE6NDfr0-45" target="wD9U5RKHlbqDQE6NDfr0-36">
          <mxGeometry relative="1" as="geometry"/>
        </mxCell>
        <mxCell id="wD9U5RKHlbqDQE6NDfr0-45" value="三方登录授权" style="rounded=0;whiteSpace=wrap;html=1;" vertex="1" parent="1">
          <mxGeometry x="1219.59" y="2913" width="111" height="52" as="geometry"/>
        </mxCell>
        <mxCell id="wD9U5RKHlbqDQE6NDfr0-79" value="" style="edgeStyle=orthogonalEdgeStyle;rounded=0;orthogonalLoop=1;jettySize=auto;html=1;fontColor=#1A1A1A;" edge="1" parent="1" source="wD9U5RKHlbqDQE6NDfr0-58">
          <mxGeometry relative="1" as="geometry">
            <mxPoint x="1891" y="3037" as="targetPoint"/>
          </mxGeometry>
        </mxCell>
        <mxCell id="wD9U5RKHlbqDQE6NDfr0-50" value="" style="html=1;shadow=0;dashed=0;shape=mxgraph.bootstrap.rrect;fillColor=#ffffff;align=center;rSize=5;strokeColor=#000000;verticalAlign=top;spacingTop=20;fontSize=14;fontStyle=1;whiteSpace=wrap;" vertex="1" parent="1">
          <mxGeometry x="1780" y="2860" width="429" height="379" as="geometry"/>
        </mxCell>
        <mxCell id="wD9U5RKHlbqDQE6NDfr0-51" value="&lt;table cellpadding=&quot;0&quot; cellspacing=&quot;0&quot; style=&quot;width:100%;height:100%;&quot;&gt;&lt;tr&gt;&lt;td align=&quot;center&quot; valign=&quot;middle&quot; width=&quot;50%&quot;&gt;Incorrect &lt;b&gt;Email&lt;/b&gt; or &lt;b&gt;Password&lt;/b&gt;&lt;/td&gt;&lt;/tr&gt;&lt;/table&gt;" style="html=1;shadow=0;dashed=0;shape=mxgraph.bootstrap.rrect;rSize=5;strokeColor=none;fillColor=#F2DEDF;fontColor=#DB524C;overflow=fill;whiteSpace=wrap;resizeWidth=1;" vertex="1" parent="wD9U5RKHlbqDQE6NDfr0-50">
          <mxGeometry width="339.625" height="40" relative="1" as="geometry">
            <mxPoint x="30" y="50" as="offset"/>
          </mxGeometry>
        </mxCell>
        <mxCell id="wD9U5RKHlbqDQE6NDfr0-52" value="&lt;font color=&quot;#cccccc&quot;&gt;用户名&lt;/font&gt;" style="html=1;shadow=0;dashed=0;shape=mxgraph.bootstrap.rrect;rSize=5;strokeColor=#999999;fillColor=#fdfdfd;fontSize=14;align=left;spacingLeft=40;whiteSpace=wrap;resizeWidth=1;" vertex="1" parent="wD9U5RKHlbqDQE6NDfr0-50">
          <mxGeometry width="339.625" height="30" relative="1" as="geometry">
            <mxPoint x="30" y="100" as="offset"/>
          </mxGeometry>
        </mxCell>
        <mxCell id="wD9U5RKHlbqDQE6NDfr0-53" value="" style="html=1;shadow=0;dashed=0;shape=mxgraph.bootstrap.leftButton;rSize=5;strokeColor=#999999;fillColor=#ffffff;resizeHeight=1;" vertex="1" parent="wD9U5RKHlbqDQE6NDfr0-52">
          <mxGeometry width="30" height="30" relative="1" as="geometry"/>
        </mxCell>
        <mxCell id="wD9U5RKHlbqDQE6NDfr0-54" value="" style="html=1;shadow=0;dashed=0;shape=mxgraph.bootstrap.mail;strokeColor=#fdfdfd;fillColor=#999999;strokeWidth=1.3;" vertex="1" parent="wD9U5RKHlbqDQE6NDfr0-53">
          <mxGeometry x="0.5" y="0.5" width="16" height="12" relative="1" as="geometry">
            <mxPoint x="-8" y="-6" as="offset"/>
          </mxGeometry>
        </mxCell>
        <mxCell id="wD9U5RKHlbqDQE6NDfr0-55" value="&lt;font color=&quot;#cccccc&quot;&gt;密码&lt;/font&gt;" style="html=1;shadow=0;dashed=0;shape=mxgraph.bootstrap.rrect;rSize=5;strokeColor=#999999;fillColor=#fdfdfd;fontSize=14;align=left;spacingLeft=40;whiteSpace=wrap;resizeWidth=1;" vertex="1" parent="wD9U5RKHlbqDQE6NDfr0-50">
          <mxGeometry width="339.625" height="30" relative="1" as="geometry">
            <mxPoint x="30" y="140" as="offset"/>
          </mxGeometry>
        </mxCell>
        <mxCell id="wD9U5RKHlbqDQE6NDfr0-56" value="" style="html=1;shadow=0;dashed=0;shape=mxgraph.bootstrap.leftButton;rSize=5;strokeColor=#999999;fillColor=#ffffff;resizeHeight=1;" vertex="1" parent="wD9U5RKHlbqDQE6NDfr0-55">
          <mxGeometry width="30" height="30" relative="1" as="geometry"/>
        </mxCell>
        <mxCell id="wD9U5RKHlbqDQE6NDfr0-57" value="" style="html=1;shadow=0;dashed=0;shape=mxgraph.bootstrap.password;strokeColor=#999999;strokeWidth=3;" vertex="1" parent="wD9U5RKHlbqDQE6NDfr0-56">
          <mxGeometry x="0.5" y="0.5" width="16" height="16" relative="1" as="geometry">
            <mxPoint x="-8" y="-8" as="offset"/>
          </mxGeometry>
        </mxCell>
        <mxCell id="wD9U5RKHlbqDQE6NDfr0-58" value="记住密码" style="html=1;shadow=0;dashed=0;shape=mxgraph.bootstrap.checkbox;rSize=3;strokeColor=#666666;fillColor=#ffffff;labelPosition=right;align=left;spacingLeft=5;fontSize=10;" vertex="1" parent="wD9U5RKHlbqDQE6NDfr0-50">
          <mxGeometry y="1" width="14" height="14" relative="1" as="geometry">
            <mxPoint x="73" y="-72" as="offset"/>
          </mxGeometry>
        </mxCell>
        <mxCell id="wD9U5RKHlbqDQE6NDfr0-59" value="登录" style="html=1;shadow=0;dashed=0;shape=mxgraph.bootstrap.rrect;rSize=5;strokeColor=#6c8ebf;fillColor=#dae8fc;fontSize=14;fontStyle=1;whiteSpace=wrap;resizeWidth=1;" vertex="1" parent="wD9U5RKHlbqDQE6NDfr0-50">
          <mxGeometry y="1" width="339.625" height="30" relative="1" as="geometry">
            <mxPoint x="30" y="-50" as="offset"/>
          </mxGeometry>
        </mxCell>
        <mxCell id="wD9U5RKHlbqDQE6NDfr0-60" value="微信" style="html=1;shadow=0;dashed=0;shape=mxgraph.bootstrap.rrect;align=center;rSize=5;strokeColor=none;fillColor=#58B957;fontColor=#ffffff;fontStyle=1;whiteSpace=wrap;" vertex="1" parent="wD9U5RKHlbqDQE6NDfr0-50">
          <mxGeometry x="96.99720930232559" y="256.0009756097561" width="59.860465116279066" height="27.731707317073173" as="geometry"/>
        </mxCell>
        <mxCell id="wD9U5RKHlbqDQE6NDfr0-61" value="QQ" style="html=1;shadow=0;dashed=0;shape=mxgraph.bootstrap.rrect;align=center;rSize=5;strokeColor=none;fillColor=#DB524C;fontColor=#ffffff;fontStyle=1;whiteSpace=wrap;" vertex="1" parent="wD9U5RKHlbqDQE6NDfr0-50">
          <mxGeometry x="173.99581395348835" y="256.0009756097561" width="59.860465116279066" height="27.731707317073173" as="geometry"/>
        </mxCell>
        <mxCell id="wD9U5RKHlbqDQE6NDfr0-63" value="新用户注册" style="html=1;shadow=0;dashed=0;shape=mxgraph.bootstrap.rrect;align=center;rSize=5;strokeColor=none;fillColor=#999999;fontColor=#ffffff;fontStyle=1;whiteSpace=wrap;" vertex="1" parent="wD9U5RKHlbqDQE6NDfr0-50">
          <mxGeometry x="284.33720930232556" y="179.33170731707318" width="73.82790697674419" height="27.731707317073173" as="geometry"/>
        </mxCell>
        <mxCell id="wD9U5RKHlbqDQE6NDfr0-64" value="三方授权登录" style="text;html=1;strokeColor=none;fillColor=none;align=center;verticalAlign=middle;whiteSpace=wrap;rounded=0;fontColor=#1A1A1A;" vertex="1" parent="wD9U5RKHlbqDQE6NDfr0-50">
          <mxGeometry x="38.90930232558139" y="220.92926829268293" width="89.7906976744186" height="11.09268292682927" as="geometry"/>
        </mxCell>
      </root>
    </mxGraphModel>
  </diagram>
</mxfile>
